{"glyphs":{":":{"x_min":0,"x_max":156,"ha":156,"o":"m 33 0 q 20 0 20 21 q 20 27 24 34 q 28 42 35 49 q 42 56 50 60 q 59 65 67 65 q 72 65 74 60 q 77 56 77 50 q 77 42 72 34 q 68 25 62 18 q 55 10 48 5 q 40 0 33 0 z m 94 191 q 81 191 81 213 q 81 219 86 226 q 90 233 96 240 q 103 247 112 252 q 120 256 129 256 q 139 256 139 242 q 139 234 134 225 q 130 216 123 208 q 116 201 108 196 q 101 191 94 191 z"},"$":{"x_min":0,"x_max":269,"ha":269,"o":"m 222 309 q 239 304 249 297 q 259 290 259 283 q 259 269 254 252 q 249 235 242 224 q 239 222 235 224 q 231 225 232 230 q 236 238 237 249 q 238 260 236 268 q 231 284 214 292 q 201 263 189 236 q 177 208 165 181 q 182 163 198 144 q 213 124 213 93 q 213 54 182 26 q 150 -1 96 -1 l 89 -1 q 84 -16 78 -32 q 72 -47 65 -63 q 60 -72 54 -72 q 47 -73 48 -65 q 55 -48 62 -32 q 68 -15 74 0 q 45 4 28 16 q 10 28 10 41 q 10 47 14 56 q 17 64 23 74 q 29 84 37 94 q 45 103 53 109 q 57 111 60 108 q 63 105 61 100 q 52 92 46 79 q 41 66 43 55 q 49 24 81 16 q 96 54 110 88 q 125 122 140 157 q 125 174 112 190 q 100 207 100 231 q 100 246 106 260 q 112 275 124 287 q 136 299 153 306 q 170 313 192 313 q 196 313 200 312 q 203 312 206 312 q 214 328 221 344 q 228 361 236 379 q 241 386 248 384 q 254 383 252 375 q 237 340 222 309 z m 182 76 q 182 99 172 116 q 163 132 150 146 q 136 113 122 80 q 109 48 95 14 l 98 14 q 140 14 161 32 q 182 50 182 76 z m 155 192 q 166 217 176 242 q 187 268 200 297 l 192 297 q 162 297 146 283 q 131 269 131 247 q 131 230 138 217 q 145 204 155 192 z"},"?":{"x_min":0,"x_max":285,"ha":285,"o":"m 68 0 q 55 0 55 21 q 55 27 60 34 q 64 42 70 49 q 77 56 86 60 q 94 65 103 65 q 108 65 110 60 q 113 56 113 50 q 113 42 108 34 q 104 25 97 18 q 90 10 82 5 q 75 0 68 0 z m 294 519 q 337 519 361 492 q 385 465 385 429 q 385 387 370 358 q 356 330 334 310 q 311 289 284 274 q 257 260 232 247 q 206 234 185 220 q 164 205 154 185 q 146 170 150 156 q 154 142 175 140 q 182 140 179 136 q 176 131 168 126 q 161 121 151 118 q 141 114 134 116 q 125 118 119 126 q 113 134 112 146 q 111 157 116 170 q 121 184 134 197 q 161 226 198 246 q 234 266 268 287 q 301 308 324 334 q 347 361 347 403 q 347 439 326 462 q 305 484 267 484 q 230 484 207 464 q 184 443 176 414 q 172 409 166 414 q 160 419 161 424 q 168 443 182 460 q 195 477 212 490 q 230 503 251 511 q 272 519 294 519 z"},"<":{"x_min":0,"x_max":301,"ha":301,"o":"m 56 133 q 51 135 55 142 q 59 148 74 153 q 89 158 117 167 q 145 176 176 186 q 208 196 240 206 q 271 216 294 223 q 300 221 295 212 q 290 203 276 198 q 265 195 244 188 q 223 181 198 173 q 172 165 146 156 q 120 148 100 141 q 129 127 169 110 q 209 92 244 75 q 249 71 242 64 q 234 57 221 59 q 207 65 186 75 q 164 85 140 96 q 117 106 94 116 q 72 126 56 133 z"},"'":{"x_min":0,"x_max":120,"ha":120,"o":"m 123 396 q 126 401 134 403 q 141 405 159 405 q 173 405 169 395 q 160 385 146 368 q 132 352 116 334 q 101 316 86 298 q 71 281 60 270 q 55 268 52 270 q 49 273 51 278 q 56 286 66 302 q 76 318 86 336 q 97 353 107 370 q 117 386 123 396 z"},"=":{"x_min":0,"x_max":301,"ha":301,"o":"m 97 192 q 112 192 134 192 q 156 193 180 193 q 205 193 232 192 q 258 192 282 191 q 290 190 283 182 q 276 173 264 172 q 219 172 168 172 q 117 171 69 170 q 62 172 67 180 q 72 189 97 192 z m 72 119 q 87 119 109 120 q 131 120 156 120 q 180 120 206 120 q 233 119 257 118 q 265 117 258 108 q 251 100 239 98 q 194 99 143 98 q 92 98 44 96 q 37 98 42 107 q 48 116 72 119 z"},"a":{"x_min":0,"x_max":294,"ha":294,"o":"m 270 63 q 272 65 275 63 q 278 61 277 57 q 256 28 236 14 q 215 0 201 0 q 192 0 186 9 q 181 18 180 34 q 178 49 180 68 q 183 88 189 109 q 162 67 132 36 q 102 6 74 0 q 56 0 44 18 q 31 35 31 72 q 31 105 44 138 q 58 170 81 196 q 104 223 134 239 q 164 255 197 255 q 215 255 228 251 q 241 247 252 239 q 258 244 268 248 q 279 253 288 253 q 293 253 291 248 q 268 220 252 186 q 235 152 226 120 q 217 88 214 64 q 212 39 218 30 q 223 23 236 30 q 249 36 270 63 z m 96 34 q 107 34 124 50 q 142 65 161 90 q 180 115 198 146 q 217 178 231 210 q 227 223 212 231 q 198 239 179 239 q 157 239 138 228 q 118 216 103 196 q 88 175 79 147 q 70 119 70 85 q 70 63 78 48 q 85 34 96 34 z"},"L":{"x_min":0,"x_max":657,"ha":657,"o":"m 660 644 q 692 644 708 623 q 725 602 725 571 q 725 551 718 529 q 711 507 702 489 q 698 486 694 488 q 691 489 692 494 q 699 512 699 531 q 699 550 692 566 q 684 581 668 591 q 651 601 626 601 q 590 601 560 588 q 530 574 504 540 q 479 506 456 448 q 433 389 410 299 q 391 227 366 173 q 341 119 308 82 q 351 65 398 52 q 446 39 505 39 q 552 39 582 56 q 613 72 636 118 q 640 120 643 118 q 646 115 644 110 q 620 56 580 28 q 540 0 473 0 q 414 0 368 17 q 322 34 279 54 q 212 0 107 0 q 69 0 50 16 q 30 31 30 49 q 30 62 38 76 q 45 89 60 100 q 74 110 94 117 q 114 124 139 124 q 178 124 214 113 q 251 102 289 88 q 334 146 368 274 q 390 356 420 424 q 449 493 486 542 q 522 590 566 617 q 610 644 660 644 z m 139 21 q 177 21 207 30 q 237 39 263 61 q 228 78 192 90 q 155 102 111 102 q 83 102 71 93 q 59 84 59 70 q 59 50 80 36 q 101 21 139 21 z"},"3":{"x_min":0,"x_max":253,"ha":253,"o":"m 182 313 q 219 313 238 292 q 258 272 258 248 q 258 200 224 172 q 190 144 123 117 q 144 123 164 118 q 183 114 198 102 q 213 89 222 70 q 230 51 230 30 q 230 -9 211 -44 q 192 -79 161 -105 q 130 -131 89 -146 q 48 -162 5 -162 q -27 -162 -41 -144 q -55 -127 -57 -94 q -55 -91 -51 -90 q -47 -89 -45 -92 q -30 -138 37 -138 q 68 -138 96 -128 q 123 -118 144 -100 q 164 -83 176 -59 q 188 -35 188 -7 q 188 47 166 74 q 143 100 101 100 q 77 100 58 87 q 53 87 51 92 q 49 96 52 101 q 98 120 130 134 q 161 148 180 162 q 200 176 208 192 q 217 207 217 229 q 217 255 202 272 q 186 290 158 290 q 132 290 115 279 q 98 268 87 248 q 84 245 79 248 q 74 251 76 256 q 88 279 114 296 q 140 313 182 313 z"},";":{"x_min":0,"x_max":156,"ha":156,"o":"m 95 191 q 82 191 82 213 q 82 219 86 226 q 90 233 97 240 q 104 247 112 252 q 120 256 129 256 q 139 256 139 242 q 139 234 134 226 q 130 217 124 209 q 117 201 110 196 q 102 191 95 191 z m 69 68 q 74 66 78 56 q 81 45 81 33 q 81 2 58 -32 q 34 -65 -1 -86 q -5 -86 -6 -82 q -7 -79 -4 -75 q 18 -61 32 -40 q 46 -19 46 4 q 46 25 36 31 q 33 34 36 40 q 40 46 46 52 q 52 58 58 63 q 65 68 69 68 z"},"J":{"x_min":0,"x_max":634,"ha":634,"o":"m 822 644 q 825 642 824 638 q 822 634 818 629 q 815 624 810 619 q 805 614 801 612 q 780 606 762 594 q 745 582 730 559 q 715 536 702 500 q 688 465 675 413 q 658 347 638 290 q 618 233 595 182 q 607 184 618 188 q 629 193 635 197 q 642 197 639 190 q 621 177 591 172 q 548 80 496 13 q 444 -54 386 -98 q 328 -142 264 -164 q 201 -185 135 -185 q 66 -185 33 -152 q 0 -120 0 -72 q 0 -34 21 7 q 42 48 78 84 q 115 120 166 147 q 216 174 276 185 q 281 185 281 181 q 281 177 276 175 q 223 165 179 142 q 135 120 103 90 q 71 60 53 25 q 35 -10 35 -46 q 35 -96 66 -126 q 96 -157 169 -157 q 228 -157 282 -139 q 337 -121 386 -82 q 435 -43 478 19 q 522 81 560 169 q 507 171 474 206 q 442 242 442 302 q 442 364 472 425 q 502 486 554 535 q 605 584 674 614 q 744 644 822 644 z m 633 391 q 655 478 686 530 q 717 582 758 606 q 689 597 633 567 q 577 537 538 494 q 498 452 476 402 q 455 353 455 306 q 455 248 484 215 q 513 182 564 179 q 601 270 633 391 z"},"V":{"x_min":0,"x_max":661,"ha":661,"o":"m 751 526 q 751 449 718 384 q 685 318 631 256 q 577 195 508 132 q 439 70 367 -1 q 360 -1 358 2 q 357 6 358 12 q 360 18 363 25 q 366 32 369 39 q 391 92 405 156 q 419 219 422 282 q 426 346 420 406 q 413 465 394 511 q 374 557 342 584 q 310 612 263 612 q 195 612 152 554 q 109 497 80 387 q 78 383 74 384 q 70 385 70 389 q 99 514 152 579 q 205 644 280 644 q 326 644 359 621 q 392 598 414 558 q 436 518 446 464 q 456 409 456 346 q 456 282 446 212 q 435 143 416 73 q 486 131 542 182 q 598 233 636 282 q 674 332 694 383 q 715 434 715 492 q 715 542 692 571 q 669 600 634 602 q 606 603 586 562 q 583 560 580 562 q 577 564 577 569 q 582 583 592 596 q 601 610 612 620 q 622 631 633 638 q 644 644 652 644 q 673 644 691 635 q 709 626 722 610 q 736 594 744 572 q 751 551 751 526 z"},"\"":{"x_min":0,"x_max":214,"ha":214,"o":"m 123 396 q 126 401 134 403 q 141 405 159 405 q 173 405 169 395 q 160 385 146 368 q 132 352 116 334 q 101 316 86 298 q 71 281 60 270 q 55 268 52 270 q 49 273 51 278 q 56 286 66 302 q 76 318 86 336 q 97 353 107 370 q 117 386 123 396 z m 217 396 q 220 401 228 403 q 235 405 253 405 q 267 405 263 395 q 254 385 240 368 q 226 352 210 334 q 195 316 180 298 q 165 281 154 270 q 149 268 146 270 q 143 273 145 278 q 150 286 160 302 q 170 318 180 336 q 191 353 201 370 q 211 386 217 396 z"},"7":{"x_min":0,"x_max":326,"ha":326,"o":"m 195 313 q 229 313 261 308 q 293 304 329 297 q 343 295 354 306 q 363 316 365 321 q 369 323 372 320 q 375 316 373 309 q 325 225 280 166 q 236 106 196 56 q 155 7 118 -38 q 81 -84 49 -139 q 42 -146 26 -154 q 9 -162 -1 -162 q -5 -162 -8 -160 q -11 -157 -9 -152 q 18 -113 44 -82 q 69 -50 95 -22 q 121 7 148 35 q 174 63 202 96 q 231 128 262 168 q 292 207 325 258 q 308 260 294 262 q 279 264 264 265 q 249 266 231 266 q 213 267 190 267 q 163 267 144 264 q 126 260 114 250 q 101 240 92 223 q 83 206 75 179 q 72 174 68 178 q 63 181 64 186 q 72 212 84 242 q 96 272 107 292 q 112 297 118 301 q 125 305 135 308 q 145 310 160 312 q 174 313 195 313 z"},"S":{"x_min":0,"x_max":480,"ha":480,"o":"m 50 121 q 50 155 68 184 q 85 212 118 229 q 122 231 124 226 q 125 222 123 219 q 87 199 87 147 q 87 121 98 98 q 109 76 130 60 q 150 43 180 33 q 209 23 247 23 q 338 23 382 62 q 425 101 425 158 q 425 196 414 227 q 403 258 386 286 q 370 313 351 338 q 332 363 316 388 q 299 413 288 440 q 277 467 277 499 q 277 529 289 556 q 301 582 321 602 q 341 621 368 632 q 396 644 428 644 q 473 644 499 621 q 525 598 525 569 q 525 552 514 532 q 503 512 492 497 q 488 495 486 498 q 483 500 483 505 q 496 521 496 549 q 496 578 470 598 q 445 619 403 619 q 360 619 334 594 q 307 570 307 533 q 307 503 318 476 q 330 450 347 424 q 364 397 384 370 q 403 344 420 316 q 437 287 448 256 q 460 224 460 187 q 460 146 442 112 q 424 77 393 52 q 362 27 320 14 q 278 0 231 0 q 143 0 96 34 q 50 68 50 121 z"},"}":{"x_min":0,"x_max":285,"ha":285,"o":"m 177 31 q 163 -37 124 -66 q 84 -96 7 -96 q -1 -94 0 -88 q 1 -82 11 -81 q 68 -81 97 -58 q 126 -34 138 21 q 143 42 145 58 q 147 75 148 91 q 150 107 152 123 q 154 139 159 160 q 167 190 188 215 q 209 240 239 254 q 214 261 204 284 q 194 307 200 335 q 206 360 214 381 q 222 402 230 422 q 238 441 246 461 q 253 481 258 505 q 268 556 250 582 q 232 607 181 607 q 176 609 177 614 q 178 620 187 622 q 259 622 284 592 q 309 562 298 511 q 292 483 284 462 q 276 441 268 422 q 260 404 252 385 q 244 366 238 342 q 234 327 237 314 q 240 302 246 292 q 253 282 264 276 q 274 270 285 268 q 291 263 287 256 q 283 249 266 245 q 234 237 219 218 q 204 200 195 165 q 185 125 184 94 q 184 63 177 31 z"},"Z":{"x_min":0,"x_max":625,"ha":625,"o":"m 435 644 q 485 644 527 634 q 569 624 620 608 q 645 600 657 601 q 669 602 683 614 q 690 619 707 619 q 716 619 714 611 q 651 553 580 486 q 508 420 434 350 q 360 281 286 211 q 213 141 145 77 q 169 79 194 72 q 219 66 250 58 q 281 50 322 42 q 363 35 419 35 q 489 35 533 66 q 577 96 608 167 q 612 169 617 166 q 622 164 620 159 q 600 117 578 86 q 556 54 528 33 q 501 12 466 2 q 430 -8 385 -8 q 349 -8 320 -4 q 292 -1 267 5 q 242 11 220 18 q 197 26 172 33 q 141 42 120 36 q 98 29 70 0 q 64 -2 56 4 q 48 9 51 14 q 136 94 209 163 q 282 232 351 298 q 420 363 490 429 q 560 495 638 569 q 586 583 530 593 q 474 603 414 603 q 346 603 312 566 q 279 529 269 467 q 266 463 262 464 q 257 466 257 471 q 264 509 276 541 q 289 573 310 596 q 331 619 362 632 q 392 644 435 644 z"},"x":{"x_min":0,"x_max":263,"ha":263,"o":"m 250 64 q 253 66 256 64 q 259 62 258 58 q 252 47 243 36 q 234 26 224 18 q 214 10 204 4 q 194 -1 186 -1 q 168 -1 148 24 q 128 49 114 92 q 88 47 62 23 q 35 -1 9 -1 q -7 -1 -7 20 q -7 32 -3 47 q 1 62 10 79 q 12 81 14 79 q 17 77 17 73 q 9 55 14 44 q 19 32 30 32 q 47 32 66 50 q 86 67 109 108 q 102 133 100 155 q 98 177 96 192 q 95 208 94 217 q 92 226 87 226 q 80 226 72 214 q 64 203 59 190 q 57 188 54 189 q 50 190 51 193 q 53 202 60 212 q 66 223 74 232 q 83 242 92 248 q 102 255 110 255 q 117 255 120 246 q 124 237 126 222 q 127 208 128 190 q 129 171 132 151 q 156 196 186 226 q 217 255 245 255 q 259 255 266 248 q 274 240 274 229 q 274 220 268 206 q 263 193 257 182 q 254 180 252 182 q 249 183 249 186 q 259 203 255 215 q 251 227 235 227 q 209 227 186 204 q 162 181 136 133 q 148 85 166 56 q 185 27 204 27 q 217 27 228 38 q 240 49 250 64 z"},")":{"x_min":0,"x_max":276,"ha":276,"o":"m 43 -102 q 37 -106 32 -104 q 27 -102 32 -93 q 52 -73 75 -43 q 98 -13 117 19 q 143 63 164 120 q 186 176 201 238 q 216 300 224 363 q 233 426 233 483 q 233 499 232 518 q 231 538 228 558 q 226 577 222 596 q 218 614 213 628 q 212 637 218 639 q 224 641 229 635 q 243 603 252 559 q 261 515 264 464 q 266 414 261 358 q 256 302 243 246 q 216 132 164 43 q 111 -46 43 -102 z"},"&":{"x_min":0,"x_max":507,"ha":507,"o":"m 501 204 q 503 199 498 196 q 494 194 490 199 q 482 210 468 217 q 455 224 436 224 q 412 224 393 211 q 374 198 356 178 q 339 157 322 132 q 305 107 286 83 q 313 58 346 44 q 379 30 418 30 q 452 30 473 56 q 477 61 484 60 q 491 59 483 48 q 467 26 444 13 q 421 0 388 0 q 350 0 318 14 q 285 28 259 53 q 236 30 206 15 q 176 0 137 0 q 85 0 52 30 q 20 60 20 107 q 20 137 32 159 q 45 181 64 198 q 84 215 108 230 q 133 244 158 259 q 150 302 150 337 q 150 365 158 390 q 167 415 182 434 q 196 453 215 464 q 234 475 255 475 q 272 475 284 459 q 296 443 296 423 q 296 394 287 370 q 278 347 263 328 q 248 310 228 294 q 209 279 188 266 q 199 216 222 170 q 244 124 278 91 q 298 116 316 145 q 335 174 355 199 q 375 224 398 240 q 420 256 449 256 q 471 256 484 240 q 496 225 501 204 z m 176 367 q 176 322 185 276 q 219 299 243 328 q 267 358 267 405 q 267 424 258 437 q 250 450 233 450 q 206 450 191 426 q 176 403 176 367 z m 59 124 q 59 79 88 53 q 117 27 169 27 q 193 27 213 36 q 233 45 250 61 q 215 97 193 146 q 171 196 160 248 q 140 235 122 222 q 104 210 90 195 q 76 180 68 163 q 59 146 59 124 z"},"_":{"x_min":0,"x_max":356,"ha":356,"o":"m 28 -29 q 45 -28 82 -27 q 118 -26 160 -26 q 203 -25 244 -25 q 285 -25 311 -25 q 316 -27 315 -33 q 314 -39 306 -40 q 280 -40 242 -40 q 203 -41 160 -42 q 116 -44 71 -47 q 26 -50 -11 -54 q -16 -53 -14 -49 q -11 -45 -4 -41 q 2 -37 11 -34 q 20 -30 28 -29 z"},"v":{"x_min":0,"x_max":271,"ha":271,"o":"m 102 14 q 88 8 74 4 q 60 0 49 0 q 37 0 43 13 q 60 55 72 104 q 84 154 88 193 q 91 228 77 228 q 63 228 40 205 q 35 203 32 206 q 29 209 32 213 q 55 236 72 246 q 90 256 105 256 q 117 256 122 247 q 126 238 126 224 q 126 205 122 179 q 118 153 112 124 q 105 96 97 68 q 89 41 82 19 q 110 26 138 45 q 166 64 188 89 q 210 114 224 144 q 237 173 237 203 q 237 229 220 229 q 206 229 195 213 q 192 211 190 214 q 188 217 189 220 q 197 233 212 244 q 226 256 240 256 q 251 256 258 246 q 266 236 266 216 q 266 187 254 158 q 241 129 219 102 q 197 75 167 52 q 137 29 102 14 z"},"O":{"x_min":0,"x_max":606,"ha":606,"o":"m 446 645 q 493 645 531 627 q 569 609 596 577 q 622 545 636 502 q 651 458 651 406 q 651 324 620 250 q 588 177 537 122 q 486 66 420 33 q 354 0 285 0 q 232 0 192 19 q 152 38 125 70 q 98 102 84 144 q 70 186 70 232 q 70 308 99 382 q 128 457 179 515 q 230 573 298 609 q 367 645 446 645 z m 328 31 q 380 31 430 56 q 481 81 521 126 q 561 172 586 236 q 611 299 611 376 q 611 486 558 548 q 506 611 414 611 q 347 611 292 584 q 236 557 196 510 q 156 463 134 400 q 112 337 112 265 q 112 213 126 170 q 141 127 168 96 q 196 65 236 48 q 277 31 328 31 z"},"(":{"x_min":0,"x_max":250,"ha":250,"o":"m 315 637 q 322 641 327 639 q 332 637 327 628 q 307 609 284 578 q 260 548 242 517 q 216 473 194 416 q 173 359 158 297 q 143 235 134 172 q 126 109 126 52 q 126 36 127 16 q 128 -3 130 -22 q 133 -42 137 -60 q 141 -79 146 -93 q 147 -101 141 -104 q 135 -106 130 -100 q 116 -68 107 -24 q 98 20 96 70 q 93 121 98 177 q 102 233 116 289 q 143 403 196 492 q 248 581 315 637 z"},"C":{"x_min":0,"x_max":557,"ha":557,"o":"m 466 644 q 502 644 532 640 q 562 637 584 630 q 605 623 618 614 q 630 604 630 592 q 630 584 626 572 q 623 561 618 549 q 613 537 606 525 q 600 513 594 505 q 591 503 588 506 q 584 508 586 512 q 607 549 595 569 q 581 592 539 608 q 497 625 442 625 q 370 625 311 600 q 252 574 210 528 q 167 481 144 417 q 120 353 120 276 q 120 220 135 172 q 150 125 179 90 q 208 56 250 36 q 292 17 346 17 q 418 17 466 62 q 514 106 534 180 q 536 185 540 184 q 545 183 545 178 q 541 157 533 132 q 525 106 516 84 q 507 61 498 44 q 490 28 484 26 q 452 14 413 7 q 374 0 330 0 q 269 0 220 18 q 172 37 138 70 q 105 103 87 148 q 69 193 69 245 q 69 325 98 398 q 127 470 180 524 q 232 579 305 612 q 378 644 466 644 z"},"W":{"x_min":0,"x_max":822,"ha":822,"o":"m 577 35 q 581 93 576 158 q 570 224 565 286 q 560 347 560 398 q 560 448 576 477 q 539 424 509 378 q 479 332 452 284 q 425 237 400 184 q 374 132 346 68 q 331 33 326 16 q 322 0 313 0 q 305 0 303 8 q 301 15 308 35 q 359 169 376 276 q 392 383 380 458 q 369 533 332 573 q 296 613 242 613 q 205 613 176 598 q 146 583 126 556 q 105 529 94 492 q 83 455 83 412 q 81 406 76 405 q 72 404 72 409 q 70 457 84 500 q 98 544 124 577 q 151 610 189 630 q 227 649 275 649 q 316 649 344 628 q 372 607 388 570 q 404 532 409 482 q 414 431 409 372 q 404 313 390 248 q 375 183 353 118 q 380 180 416 248 q 453 317 494 382 q 536 447 580 503 q 623 559 665 597 q 668 598 670 595 q 673 592 674 587 q 675 582 674 577 q 674 572 671 568 q 657 559 648 550 q 638 542 627 528 q 610 506 604 472 q 597 438 596 398 q 596 358 600 313 q 605 268 609 224 q 613 179 615 137 q 617 95 613 60 q 651 117 700 170 q 749 222 793 277 q 837 332 867 393 q 897 454 897 529 q 897 561 888 582 q 879 603 862 605 q 850 606 841 594 q 832 581 825 566 q 815 562 815 573 q 826 601 844 622 q 862 644 879 644 q 903 644 918 620 q 932 596 932 562 q 932 502 916 452 q 900 403 874 360 q 847 316 813 276 q 779 236 744 196 q 708 157 674 116 q 639 74 611 27 q 603 15 596 8 q 590 0 582 0 q 577 0 576 3 q 574 6 574 11 q 574 16 576 22 q 577 29 577 35 z"},"A":{"x_min":0,"x_max":996,"ha":996,"o":"m 1004 585 q 1006 583 1006 580 q 1006 576 1001 570 q 968 534 942 488 q 916 441 898 386 q 879 331 869 270 q 859 209 859 145 q 859 97 871 70 q 883 44 912 44 q 951 44 988 100 q 991 102 994 100 q 997 98 995 94 q 985 77 972 60 q 958 44 943 30 q 928 17 914 8 q 899 0 887 0 q 854 0 836 34 q 819 67 819 119 q 819 199 837 282 q 790 282 744 281 q 699 280 655 278 q 622 243 592 212 q 561 181 532 155 q 452 82 368 41 q 283 0 182 0 q 131 0 100 24 q 68 49 56 86 q 45 123 54 168 q 64 212 97 251 q 100 253 104 250 q 108 248 107 241 q 83 215 78 181 q 74 147 89 116 q 104 85 140 64 q 176 43 234 43 q 310 43 388 79 q 465 115 534 180 q 556 200 580 224 q 603 249 629 277 q 560 272 505 265 q 500 266 503 270 q 506 274 512 278 q 519 283 528 286 q 536 290 544 291 q 556 292 584 292 q 611 293 646 294 q 703 354 774 423 q 844 492 937 565 q 870 587 798 602 q 727 616 661 616 q 586 616 536 572 q 487 529 475 440 q 473 435 470 436 q 466 437 465 442 q 477 540 538 592 q 599 644 696 644 q 737 644 779 638 q 821 633 861 624 q 901 616 938 606 q 974 595 1004 585 z m 840 295 q 857 368 887 438 q 917 507 959 564 q 871 493 801 424 q 731 356 671 294 q 719 295 766 295 q 813 295 840 295 z"},"f":{"x_min":0,"x_max":156,"ha":156,"o":"m 464 727 q 483 727 496 719 q 509 711 516 698 q 522 685 522 670 q 522 654 515 639 q 513 636 510 637 q 507 638 505 641 q 503 661 486 676 q 470 692 435 692 q 397 692 362 672 q 328 652 292 602 q 257 552 220 467 q 184 382 142 252 q 165 253 190 253 q 216 253 243 253 q 248 251 248 248 q 247 244 238 242 q 213 241 188 240 q 163 239 137 237 q 134 226 130 217 q 89 86 46 -2 q 3 -91 -42 -144 q -87 -198 -134 -220 q -180 -243 -228 -243 q -262 -243 -276 -228 q -291 -213 -291 -193 q -291 -184 -287 -174 q -283 -163 -277 -155 q -274 -152 -272 -154 q -269 -156 -269 -159 q -273 -167 -272 -178 q -271 -188 -264 -198 q -256 -207 -242 -214 q -227 -220 -204 -220 q -180 -220 -156 -214 q -133 -208 -110 -192 q -86 -175 -62 -145 q -39 -115 -14 -66 q 11 -18 38 51 q 65 120 94 215 q 96 220 97 224 q 98 229 100 234 q 83 232 66 230 q 49 227 32 223 q 27 224 30 228 q 32 232 38 236 q 45 240 54 244 q 63 247 71 248 q 79 249 88 250 q 96 250 105 251 q 141 359 182 446 q 224 534 270 596 q 316 659 365 693 q 414 727 464 727 z"},"Q":{"x_min":0,"x_max":563,"ha":563,"o":"m 407 644 q 456 644 494 628 q 532 613 558 584 q 584 556 598 517 q 611 478 611 430 q 611 352 578 282 q 544 212 488 158 q 432 103 358 67 q 285 31 204 21 q 230 12 261 -2 q 292 -17 326 -34 q 359 -50 396 -67 q 432 -84 468 -98 q 506 -113 538 -120 q 569 -127 607 -127 q 658 -127 692 -114 q 725 -100 749 -74 q 752 -72 756 -74 q 760 -75 758 -80 q 731 -118 688 -142 q 646 -167 586 -167 q 565 -167 548 -165 q 530 -163 512 -158 q 495 -154 477 -148 q 459 -141 438 -131 q 388 -109 336 -82 q 284 -55 236 -32 q 187 -8 143 8 q 99 23 66 22 q 61 24 60 30 q 59 35 70 41 q 89 52 107 52 q 119 52 137 44 q 155 36 169 36 q 246 36 318 63 q 389 90 444 140 q 498 189 531 258 q 564 326 564 409 q 564 455 553 494 q 542 534 520 562 q 498 591 466 607 q 435 623 393 623 q 337 623 290 600 q 244 576 210 534 q 176 492 158 434 q 139 375 139 304 q 139 250 162 211 q 186 172 233 164 q 268 158 282 172 q 286 173 288 170 q 290 167 289 163 q 280 152 261 144 q 242 137 219 137 q 192 137 171 149 q 150 161 135 182 q 120 202 112 230 q 104 257 104 289 q 104 357 128 421 q 151 485 192 534 q 232 584 288 614 q 343 644 407 644 z"},"w":{"x_min":0,"x_max":369,"ha":369,"o":"m 323 255 q 337 255 346 238 q 356 222 356 190 q 356 152 342 118 q 327 83 305 57 q 283 31 257 16 q 231 0 209 0 q 191 0 180 14 q 170 28 170 56 q 170 68 171 82 q 172 96 174 110 q 176 125 178 138 q 181 151 184 161 q 163 135 141 99 q 119 63 97 26 q 89 10 84 5 q 78 0 70 0 q 62 0 64 11 q 71 35 76 70 q 80 106 80 140 q 80 173 76 198 q 71 223 59 228 q 53 230 44 225 q 34 220 29 209 q 27 207 24 210 q 20 212 21 216 q 23 221 29 228 q 35 234 43 240 q 51 246 60 250 q 69 255 77 255 q 96 255 105 230 q 114 206 114 148 q 114 122 112 101 q 109 80 106 64 q 126 98 144 124 q 162 149 178 170 q 184 178 188 188 q 193 199 198 218 q 199 222 205 226 q 211 231 217 234 q 223 237 228 238 q 232 239 232 236 q 217 203 208 160 q 200 116 200 79 q 200 31 234 31 q 251 31 269 42 q 287 53 302 72 q 316 90 326 114 q 335 139 335 166 q 335 205 320 216 q 304 227 287 213 q 279 211 281 220 q 284 225 289 231 q 294 237 300 242 q 307 248 313 252 q 319 255 323 255 z"},"-":{"x_min":0,"x_max":245,"ha":245,"o":"m 59 160 q 72 161 92 163 q 113 165 136 166 q 159 168 182 169 q 204 170 221 170 q 225 169 224 165 q 223 161 220 156 q 216 152 210 148 q 204 144 197 143 q 179 143 157 142 q 135 142 114 141 q 92 140 72 140 q 52 139 39 138 q 32 140 39 148 q 46 157 59 160 z"},"E":{"x_min":0,"x_max":494,"ha":494,"o":"m 269 523 q 269 488 292 464 q 316 439 373 422 q 376 420 374 416 q 371 411 366 406 q 361 401 354 397 q 348 393 344 392 q 232 397 170 344 q 108 290 108 182 q 108 147 118 117 q 129 87 148 65 q 168 43 196 30 q 223 18 258 18 q 340 18 392 56 q 444 94 467 179 q 470 184 474 182 q 477 180 478 174 q 466 118 450 81 q 433 44 419 38 q 384 22 334 11 q 285 0 234 0 q 192 0 160 13 q 127 26 105 48 q 83 70 72 98 q 60 127 60 158 q 60 206 78 248 q 95 291 126 324 q 158 357 202 380 q 245 403 297 412 q 265 429 247 452 q 229 475 229 502 q 229 530 244 556 q 258 581 284 600 q 309 620 344 632 q 378 644 419 644 q 443 644 466 640 q 489 635 507 628 q 525 620 536 610 q 546 601 546 591 q 546 583 542 572 q 539 562 534 551 q 530 540 524 530 q 519 521 516 517 q 514 515 510 516 q 507 518 508 522 q 514 533 517 546 q 520 560 512 573 q 501 591 470 609 q 439 627 399 627 q 366 627 342 618 q 318 609 302 594 q 285 579 277 560 q 269 542 269 523 z"},"s":{"x_min":0,"x_max":188,"ha":188,"o":"m 139 256 q 159 256 172 250 q 186 243 186 235 q 186 224 182 210 q 177 196 172 187 q 170 185 166 186 q 163 188 164 191 q 167 198 168 207 q 169 216 167 223 q 162 243 139 243 q 122 243 112 233 q 101 223 101 203 q 101 187 110 172 q 118 158 128 144 q 139 129 148 112 q 156 96 156 76 q 156 44 134 22 q 111 0 66 0 q 35 0 15 11 q -5 22 -5 34 q -5 43 6 61 q 17 79 31 90 q 34 92 36 89 q 39 86 37 83 q 29 75 25 64 q 21 54 23 46 q 26 29 38 20 q 51 12 68 12 q 94 12 108 26 q 123 40 123 62 q 123 81 114 98 q 105 114 94 130 q 84 145 76 160 q 67 176 67 194 q 67 220 86 238 q 106 256 139 256 z"},">":{"x_min":0,"x_max":301,"ha":301,"o":"m 269 155 q 274 153 270 146 q 266 140 251 135 q 236 130 208 121 q 180 112 148 102 q 117 92 86 82 q 54 72 31 65 q 25 67 30 76 q 35 85 49 90 q 59 93 80 100 q 102 106 128 114 q 153 123 179 132 q 205 140 225 147 q 196 161 156 178 q 116 196 81 213 q 76 217 84 224 q 91 231 104 229 q 118 223 140 213 q 161 203 184 192 q 208 182 230 172 q 253 162 269 155 z"},"l":{"x_min":0,"x_max":134,"ha":134,"o":"m 442 743 q 468 743 476 719 q 483 695 469 668 q 467 666 464 668 q 461 670 460 673 q 462 685 452 693 q 441 701 419 701 q 376 701 334 665 q 292 629 253 572 q 214 514 180 443 q 147 372 122 302 q 98 231 84 168 q 70 106 70 67 q 70 37 87 37 q 99 37 110 47 q 122 57 137 77 q 140 79 142 76 q 145 74 144 70 q 124 39 100 20 q 76 0 59 0 q 46 0 38 10 q 30 21 30 39 q 30 67 40 112 q 50 156 68 211 q 86 266 112 326 q 137 387 167 446 q 197 505 230 559 q 264 613 300 654 q 335 695 371 719 q 407 743 442 743 z"},"8":{"x_min":0,"x_max":305,"ha":305,"o":"m 355 401 q 355 319 250 272 q 271 249 288 222 q 306 195 306 154 q 306 124 292 96 q 279 68 256 47 q 234 26 204 13 q 174 0 141 0 q 93 0 66 29 q 40 58 40 98 q 40 152 75 194 q 110 235 196 265 q 177 287 162 310 q 148 334 148 368 q 148 387 157 406 q 166 425 182 440 q 199 456 222 466 q 245 476 273 476 q 310 476 332 454 q 355 432 355 401 z m 173 28 q 213 28 240 55 q 268 82 268 123 q 268 147 262 166 q 257 184 248 200 q 240 215 229 228 q 218 242 206 254 q 135 228 108 196 q 81 163 81 118 q 81 77 104 52 q 128 28 173 28 z m 240 282 q 284 304 302 328 q 320 352 320 381 q 320 415 300 434 q 281 452 249 452 q 220 452 202 435 q 185 418 185 391 q 185 354 202 330 q 218 305 240 282 z"},"\\":{"x_min":0,"x_max":212,"ha":212,"o":"m 49 630 q 59 565 76 478 q 92 390 110 298 q 128 207 146 122 q 163 36 176 -24 q 177 -35 169 -40 q 161 -45 156 -37 q 143 29 126 112 q 110 195 93 283 q 76 371 60 458 q 43 546 30 621 q 32 629 39 634 q 46 638 49 630 z"},"e":{"x_min":0,"x_max":206,"ha":206,"o":"m 206 212 q 206 198 195 186 q 184 174 165 164 q 146 155 122 147 q 97 139 70 132 q 69 121 68 110 q 68 99 68 86 q 68 61 79 44 q 90 27 110 27 q 130 27 148 37 q 165 47 179 64 q 183 66 185 63 q 187 60 185 56 q 168 33 142 16 q 117 0 89 0 q 63 0 46 17 q 30 34 30 67 q 30 97 41 130 q 52 164 70 192 q 88 220 112 238 q 135 256 161 256 q 180 256 193 242 q 206 229 206 212 z m 140 230 q 117 230 99 210 q 81 190 73 147 q 121 154 144 168 q 166 181 166 198 q 166 212 159 221 q 152 230 140 230 z"},"b":{"x_min":0,"x_max":247,"ha":247,"o":"m 471 756 q 503 756 518 731 q 532 706 524 673 q 518 667 514 674 q 512 694 496 708 q 481 723 449 723 q 404 723 358 696 q 311 669 266 606 q 220 543 176 440 q 133 336 93 183 q 102 196 114 208 q 125 221 139 232 q 153 242 168 248 q 183 255 198 255 q 221 255 230 236 q 240 217 240 192 q 240 160 224 126 q 208 91 184 63 q 159 35 130 17 q 101 -1 76 -1 q 58 -1 46 10 q 35 20 35 46 q 35 68 42 104 q 49 140 61 184 q 73 227 90 275 q 107 323 127 370 q 211 568 296 662 q 380 756 471 756 z m 176 222 q 161 222 144 212 q 127 203 112 184 q 97 165 86 136 q 76 107 73 69 q 71 47 78 38 q 86 29 101 29 q 120 29 139 42 q 158 54 173 74 q 188 94 198 119 q 207 144 207 169 q 207 198 198 210 q 189 222 176 222 z"},"%":{"x_min":0,"x_max":388,"ha":388,"o":"m 115 285 q 88 285 68 260 q 49 236 49 206 q 49 180 58 166 q 66 151 85 151 q 113 151 132 176 q 151 200 151 231 q 151 257 142 271 q 134 285 115 285 z m 67 123 q 45 123 32 138 q 20 152 20 177 q 20 201 30 225 q 39 249 54 268 q 70 288 90 300 q 111 313 133 313 q 155 313 168 299 q 180 285 180 260 q 180 236 170 212 q 161 187 146 168 q 130 148 110 136 q 89 123 67 123 z m 303 162 q 276 162 257 138 q 238 113 238 82 q 238 56 246 42 q 254 28 274 28 q 301 28 320 52 q 339 77 339 108 q 339 134 331 148 q 323 162 303 162 z m 256 0 q 234 0 222 14 q 209 29 209 54 q 209 78 218 102 q 228 126 244 146 q 259 165 279 178 q 299 190 321 190 q 344 190 356 176 q 368 162 368 137 q 368 113 358 88 q 349 64 334 44 q 318 25 298 12 q 278 0 256 0 z m 364 367 q 283 262 202 150 q 121 39 52 -64 q 44 -72 37 -70 q 30 -67 32 -59 q 71 -4 108 48 q 144 100 182 152 q 219 204 258 258 q 298 313 344 374 q 351 379 358 377 q 366 375 364 367 z"},"m":{"x_min":0,"x_max":413,"ha":413,"o":"m 356 210 q 356 231 341 231 q 326 231 308 216 q 290 201 270 173 q 251 145 232 104 q 212 64 194 13 q 192 7 184 4 q 175 0 167 0 q 155 0 158 9 q 164 27 174 54 q 185 81 194 110 q 204 138 211 163 q 218 188 218 202 q 218 230 201 230 q 175 230 135 174 q 95 118 59 13 q 57 7 50 4 q 43 0 35 0 q 30 0 27 2 q 24 4 26 9 q 34 31 43 58 q 52 84 61 111 q 70 138 78 164 q 85 190 90 213 q 95 231 85 231 q 77 231 66 220 q 55 209 44 194 q 41 192 38 194 q 35 197 37 200 q 52 221 70 238 q 89 256 108 256 q 121 256 124 246 q 128 236 125 222 q 120 200 116 182 q 111 163 104 144 q 130 194 162 225 q 193 256 224 256 q 236 256 244 247 q 251 238 251 222 q 251 201 247 180 q 243 159 235 137 q 265 194 300 225 q 334 256 368 256 q 379 256 386 248 q 393 240 393 227 q 393 209 386 188 q 378 166 369 143 q 360 120 352 98 q 345 75 345 55 q 345 30 360 30 q 376 30 404 63 q 406 65 408 62 q 411 59 409 55 q 403 47 394 38 q 385 28 376 20 q 366 11 355 6 q 344 0 334 0 q 311 0 311 38 q 311 62 318 86 q 325 111 334 134 q 342 156 349 176 q 356 196 356 210 z"},"#":{"x_min":0,"x_max":289,"ha":289,"o":"m 301 237 q 308 235 300 226 q 293 217 284 214 q 271 215 258 215 q 244 215 230 215 q 219 196 210 178 q 200 159 192 140 q 208 140 222 140 q 237 139 251 138 q 254 137 254 134 q 253 131 250 127 q 247 123 242 120 q 238 116 234 115 q 221 116 208 116 q 195 116 181 116 q 169 89 158 63 q 148 37 138 11 q 134 0 128 0 q 122 0 124 7 q 131 28 141 56 q 151 84 164 116 q 144 116 126 116 q 107 116 89 114 q 67 60 53 11 q 49 0 43 0 q 39 0 39 7 q 44 27 53 54 q 62 82 73 113 q 57 111 43 110 q 29 108 17 106 q 13 107 14 111 q 15 115 20 120 q 24 125 30 129 q 35 133 40 134 q 50 135 60 136 q 70 136 81 137 q 89 156 96 175 q 104 194 112 213 q 95 211 81 210 q 67 208 55 206 q 51 206 52 210 q 54 214 58 219 q 62 224 68 228 q 73 232 78 233 q 89 235 100 236 q 111 236 123 237 q 130 251 136 264 q 142 276 149 287 q 153 294 160 302 q 167 310 174 316 q 180 321 184 322 q 189 322 188 313 q 176 294 166 275 q 155 256 145 238 q 164 238 183 238 q 202 239 220 239 q 227 252 234 264 q 240 275 247 285 q 251 292 259 301 q 267 310 274 316 q 282 322 286 323 q 291 324 290 315 q 277 296 266 278 q 254 259 243 239 q 259 239 274 238 q 288 238 301 237 z m 173 140 q 189 177 208 216 q 189 216 170 216 q 151 215 133 214 q 123 194 114 176 q 106 157 98 138 q 117 139 136 140 q 155 140 173 140 z"},",":{"x_min":0,"x_max":112,"ha":112,"o":"m 75 66 q 80 64 84 54 q 87 43 87 31 q 87 0 64 -34 q 40 -67 5 -88 q 1 -88 0 -84 q -1 -81 2 -77 q 24 -63 38 -42 q 52 -21 52 2 q 52 23 42 29 q 39 32 42 38 q 46 44 52 50 q 58 56 64 61 q 71 66 75 66 z"},"n":{"x_min":0,"x_max":291,"ha":291,"o":"m 282 64 q 285 66 288 64 q 291 62 290 58 q 273 35 252 18 q 232 0 214 0 q 183 0 183 40 q 183 74 195 116 q 207 157 228 199 q 232 206 232 213 q 232 224 222 224 q 185 224 140 173 q 96 122 58 13 q 56 7 47 4 q 38 0 30 0 q 19 0 22 9 q 39 52 58 106 q 76 160 90 213 q 94 232 83 232 q 73 232 63 222 q 53 212 42 196 q 40 194 38 197 q 35 200 36 203 q 47 220 66 238 q 85 256 107 256 q 132 256 124 222 q 120 200 113 176 q 106 151 98 127 q 112 154 131 178 q 150 202 170 219 q 191 236 212 246 q 232 256 250 256 q 262 256 268 250 q 275 244 275 236 q 275 223 269 210 q 248 172 234 130 q 219 89 219 54 q 219 29 235 29 q 256 29 282 64 z"},"h":{"x_min":0,"x_max":292,"ha":292,"o":"m 26 9 q 71 181 127 319 q 183 457 244 554 q 306 651 370 704 q 434 756 494 756 q 516 756 530 748 q 545 739 550 726 q 556 713 554 697 q 551 681 539 666 q 537 663 534 664 q 531 665 531 669 q 535 689 519 707 q 503 725 468 725 q 421 725 372 688 q 323 651 274 574 q 225 498 178 382 q 130 266 86 107 q 102 138 123 166 q 144 193 166 213 q 188 233 210 244 q 233 256 254 256 q 266 256 272 250 q 278 244 278 236 q 278 223 269 207 q 248 170 234 131 q 221 92 221 60 q 221 46 224 37 q 228 28 236 28 q 246 28 258 38 q 269 49 278 62 q 281 64 284 62 q 287 59 286 55 q 280 46 271 36 q 262 27 252 18 q 241 10 230 5 q 219 0 210 0 q 185 0 185 42 q 185 78 197 120 q 209 163 226 196 q 232 206 232 213 q 232 222 221 222 q 203 222 182 208 q 161 194 139 167 q 117 140 97 102 q 77 63 61 15 q 59 8 50 4 q 42 0 34 0 q 23 0 26 9 z"},"z":{"x_min":0,"x_max":238,"ha":238,"o":"m 48 49 q 71 41 96 36 q 120 30 145 30 q 171 30 188 44 q 204 59 215 88 q 218 90 222 88 q 226 86 224 82 q 210 44 188 22 q 165 -1 134 -1 q 113 -1 92 4 q 71 8 48 16 q 36 21 26 17 q 15 13 0 -1 q -5 -1 -8 4 q -11 9 -8 14 q 14 36 40 62 q 67 88 94 115 q 121 142 146 167 q 172 192 193 213 q 171 218 144 221 q 117 224 98 224 q 69 224 58 192 q 56 189 52 191 q 48 193 48 196 q 56 218 73 236 q 90 255 116 255 q 139 255 160 250 q 181 246 195 242 q 206 240 214 242 q 222 245 230 252 q 233 255 239 255 q 251 255 249 247 q 195 195 144 144 q 92 94 48 49 z"},"B":{"x_min":0,"x_max":638,"ha":638,"o":"m 519 364 q 576 338 602 292 q 628 246 628 197 q 628 106 564 53 q 499 0 371 0 q 268 0 184 34 q 101 68 31 127 q 28 131 33 136 q 38 140 46 144 q 53 147 62 148 q 71 150 77 147 q 96 127 116 122 q 135 116 162 121 q 188 126 208 141 q 229 156 248 187 q 266 218 284 268 q 303 318 324 394 q 345 468 374 524 q 404 580 446 618 q 437 620 428 620 q 419 620 408 620 q 375 620 342 610 q 310 601 281 583 q 252 565 229 539 q 206 513 191 480 q 189 478 186 480 q 184 481 185 485 q 197 516 222 545 q 246 574 280 596 q 314 618 356 631 q 399 644 448 644 q 456 644 464 644 q 471 644 479 643 q 515 668 565 680 q 570 680 570 677 q 570 674 565 672 q 548 667 531 660 q 514 652 499 641 q 539 635 568 622 q 598 608 617 588 q 636 569 645 546 q 654 524 654 500 q 654 470 642 445 q 631 420 612 402 q 593 384 568 374 q 544 364 519 364 z m 394 15 q 439 15 474 28 q 510 40 534 62 q 559 83 572 112 q 584 141 584 175 q 584 320 433 360 q 430 363 434 368 q 438 373 445 377 q 452 381 461 383 q 470 385 476 384 q 485 380 492 378 q 500 377 512 377 q 530 377 548 384 q 565 392 578 406 q 592 420 600 438 q 609 457 609 480 q 609 528 574 566 q 540 603 468 616 q 435 582 409 532 q 383 482 365 412 q 339 317 312 258 q 284 198 255 164 q 226 130 195 117 q 164 104 132 103 q 183 65 251 40 q 319 15 394 15 z"},"K":{"x_min":0,"x_max":936,"ha":936,"o":"m 551 347 q 536 261 503 196 q 470 131 422 88 q 375 44 315 22 q 255 0 187 0 q 116 0 83 31 q 50 62 50 108 q 50 128 56 148 q 62 169 72 187 q 83 205 98 219 q 114 233 132 242 q 138 242 140 239 q 141 236 139 232 q 113 218 99 192 q 85 167 85 136 q 85 88 118 58 q 152 27 213 27 q 274 27 322 42 q 369 58 405 92 q 441 126 466 180 q 490 235 504 313 q 517 385 530 433 q 544 481 559 512 q 574 544 591 561 q 608 578 628 589 q 602 599 567 606 q 532 612 491 612 q 429 612 382 590 q 335 569 306 532 q 276 495 266 444 q 256 394 268 336 q 268 331 264 329 q 260 327 257 332 q 243 394 255 450 q 267 507 302 550 q 336 593 393 618 q 450 644 527 644 q 569 644 608 635 q 647 626 678 612 q 682 606 678 602 q 673 597 658 590 q 637 581 622 565 q 606 549 594 521 q 582 493 572 450 q 561 408 551 347 z m 615 368 q 637 290 659 228 q 681 165 707 122 q 733 78 766 55 q 799 32 842 32 q 864 32 882 44 q 901 55 912 73 q 915 76 918 73 q 921 70 920 65 q 905 37 878 18 q 852 0 813 0 q 767 0 732 28 q 697 55 670 102 q 643 149 622 211 q 602 273 585 341 q 582 351 589 361 q 634 419 682 471 q 731 523 779 561 q 827 599 872 622 q 917 644 955 644 q 972 644 984 631 q 996 618 996 597 q 996 583 994 572 q 991 560 984 544 q 981 541 978 542 q 975 543 974 547 q 979 571 968 588 q 956 606 923 606 q 895 606 858 588 q 821 571 780 540 q 739 508 696 464 q 654 420 615 368 z"},"R":{"x_min":0,"x_max":854,"ha":854,"o":"m 853 75 q 855 78 860 78 q 864 77 863 72 q 841 39 813 20 q 785 0 753 0 q 709 0 678 25 q 647 50 624 92 q 602 135 587 191 q 572 247 559 308 q 559 314 563 317 q 568 319 574 322 q 580 324 591 329 q 594 330 600 328 q 605 327 614 326 q 623 324 636 324 q 648 324 665 328 q 717 340 746 376 q 775 412 775 466 q 775 530 737 572 q 699 614 632 619 q 604 587 582 536 q 561 486 543 419 q 514 309 474 230 q 435 150 387 99 q 339 48 283 24 q 227 0 165 0 q 135 0 114 9 q 92 18 78 34 q 63 50 56 70 q 49 91 49 114 q 49 152 70 190 q 90 227 124 244 q 133 246 131 236 q 101 221 86 194 q 72 166 72 136 q 72 84 103 57 q 134 30 192 30 q 244 30 286 46 q 329 61 364 100 q 399 138 429 204 q 459 270 487 371 q 511 457 539 518 q 567 580 605 620 q 417 616 319 477 q 316 475 312 477 q 309 479 311 484 q 359 554 439 596 q 519 639 632 643 q 649 656 668 666 q 687 675 710 680 q 715 680 715 676 q 715 673 710 671 q 681 663 657 644 q 692 644 721 630 q 750 617 771 595 q 792 573 804 546 q 815 518 815 488 q 815 448 797 414 q 779 380 750 356 q 720 332 682 320 q 643 307 602 309 q 618 223 637 169 q 656 115 679 84 q 702 54 728 43 q 755 32 785 32 q 806 32 822 42 q 837 53 853 75 z"},"T":{"x_min":0,"x_max":577,"ha":577,"o":"m 809 587 q 815 581 808 572 q 792 549 784 552 q 772 556 760 560 q 748 563 735 566 q 679 561 635 508 q 591 454 556 339 q 504 170 412 86 q 319 1 188 1 q 152 1 126 10 q 100 20 83 36 q 66 51 58 72 q 50 92 50 113 q 50 173 109 213 q 113 213 114 209 q 115 205 113 202 q 99 191 92 178 q 86 166 86 143 q 86 92 122 62 q 157 33 227 33 q 275 33 315 46 q 355 59 388 90 q 422 122 450 175 q 479 228 505 308 q 541 420 591 488 q 641 557 704 574 q 637 591 565 601 q 493 611 422 611 q 366 611 322 592 q 279 574 250 543 q 221 512 208 470 q 195 429 201 384 q 195 375 190 383 q 184 432 198 479 q 211 526 244 563 q 277 600 330 622 q 383 644 455 644 q 562 644 650 626 q 737 609 809 587 z"},"P":{"x_min":0,"x_max":783,"ha":783,"o":"m 691 641 q 735 635 769 616 q 803 598 826 571 q 849 544 861 512 q 873 479 873 444 q 873 398 856 358 q 840 319 810 290 q 779 260 734 243 q 690 226 633 226 q 566 226 526 259 q 466 124 384 62 q 301 0 203 0 q 165 0 136 12 q 108 25 88 45 q 69 65 60 92 q 50 118 50 146 q 50 165 56 184 q 61 204 70 222 q 80 239 94 254 q 108 268 125 276 q 135 278 131 269 q 102 253 88 226 q 73 199 73 168 q 73 139 84 114 q 94 89 114 70 q 134 51 163 40 q 192 30 230 30 q 276 30 314 42 q 353 54 386 84 q 418 113 446 162 q 474 212 500 287 q 489 303 481 322 q 473 341 468 364 q 469 368 472 370 q 475 371 477 368 q 486 329 505 303 q 515 334 526 372 q 549 457 576 518 q 604 580 642 619 q 636 620 630 620 q 623 620 616 620 q 510 620 436 569 q 363 518 334 418 q 331 415 328 418 q 325 420 325 428 q 359 528 438 586 q 517 644 647 644 q 653 644 658 644 q 664 644 669 643 q 703 669 748 680 q 753 680 754 677 q 754 674 749 672 q 732 667 718 660 q 704 652 691 641 z m 643 246 q 685 246 720 260 q 754 274 778 298 q 803 323 816 356 q 829 389 829 427 q 829 462 818 494 q 808 525 788 550 q 767 574 736 592 q 706 609 667 616 q 640 583 619 534 q 598 485 581 420 q 560 340 533 275 q 573 246 643 246 z"},"|":{"x_min":0,"x_max":162,"ha":162,"o":"m 102 -243 l 80 -243 l 80 645 l 102 645 l 102 -243 z"},"t":{"x_min":0,"x_max":171,"ha":171,"o":"m 206 252 q 211 250 210 246 q 209 242 201 241 q 185 240 166 239 q 146 238 126 236 q 106 186 93 140 q 80 94 80 64 q 80 30 106 30 q 132 30 163 76 q 166 78 169 76 q 172 73 171 68 q 162 54 150 42 q 139 29 127 20 q 115 11 104 6 q 93 0 86 0 q 64 0 54 14 q 43 27 43 46 q 43 79 57 129 q 71 179 92 232 q 79 230 67 228 q 55 226 44 224 q 39 225 42 229 q 44 233 50 237 q 57 241 66 244 q 75 248 83 248 q 88 249 92 249 q 95 249 99 249 q 113 280 127 308 q 141 337 155 361 q 161 367 168 372 q 176 376 183 378 q 190 379 194 378 q 198 378 197 375 q 180 349 164 317 q 147 285 132 251 q 150 251 168 252 q 186 252 206 252 z"},"M":{"x_min":0,"x_max":1219,"ha":1219,"o":"m 1286 656 q 1291 656 1293 651 q 1295 646 1292 642 q 1244 600 1206 542 q 1167 483 1139 418 q 1111 353 1096 286 q 1081 218 1081 159 q 1081 105 1094 74 q 1107 44 1130 44 q 1168 44 1205 100 q 1208 103 1212 100 q 1215 98 1214 94 q 1203 77 1190 60 q 1176 44 1161 30 q 1146 17 1132 8 q 1117 0 1105 0 q 1079 0 1059 30 q 1039 61 1039 124 q 1039 176 1050 236 q 1060 296 1081 356 q 1102 417 1134 474 q 1165 531 1206 578 q 1144 532 1080 468 q 1015 403 956 330 q 896 256 845 178 q 794 101 760 29 q 756 22 745 11 q 734 0 728 0 q 721 0 721 7 q 740 162 776 282 q 811 403 860 505 q 780 385 703 291 q 626 197 549 132 q 472 68 392 34 q 312 0 226 0 q 185 0 153 13 q 121 26 98 49 q 75 72 63 103 q 51 134 51 171 q 51 219 74 259 q 96 299 140 322 q 144 324 146 320 q 147 316 145 312 q 114 292 102 266 q 89 240 89 198 q 89 165 100 136 q 111 106 132 84 q 154 62 186 49 q 217 36 259 36 q 347 36 428 76 q 508 117 584 188 q 660 259 733 354 q 806 449 879 559 q 809 583 732 600 q 656 616 586 616 q 511 616 461 572 q 411 529 400 440 q 398 435 394 436 q 391 437 390 442 q 401 540 462 592 q 523 644 621 644 q 662 644 704 638 q 746 633 786 624 q 826 616 862 606 q 899 595 929 585 q 931 586 934 586 q 936 586 938 587 q 942 587 942 583 q 943 579 941 576 q 927 567 918 554 q 909 541 898 520 q 848 420 818 310 q 789 201 769 89 q 816 172 877 255 q 938 338 1006 413 q 1074 488 1146 550 q 1218 613 1286 656 z"},"g":{"x_min":0,"x_max":210,"ha":210,"o":"m 226 270 q 229 272 232 270 q 235 267 233 263 q 225 251 213 242 q 201 232 183 233 q 192 218 192 194 q 192 171 185 152 q 178 133 169 116 q 160 99 150 84 q 141 69 136 53 q 130 37 130 20 q 131 4 142 -16 q 151 -33 158 -46 q 166 -60 172 -72 q 177 -85 180 -98 q 182 -111 182 -126 q 182 -150 172 -172 q 162 -193 143 -210 q 124 -226 97 -236 q 70 -245 36 -245 q 1 -245 -27 -235 q -55 -225 -74 -208 q -94 -192 -104 -170 q -114 -149 -114 -126 q -114 -96 -92 -74 q -71 -51 -31 -40 q -26 -40 -24 -44 q -23 -47 -26 -50 q -47 -58 -60 -74 q -73 -90 -73 -117 q -73 -168 -38 -199 q -3 -230 54 -230 q 102 -230 125 -206 q 148 -181 148 -142 q 148 -119 141 -101 q 134 -83 120 -60 q 101 -28 104 2 q 106 31 124 63 q 126 67 128 70 q 131 74 133 79 q 122 67 108 58 q 93 49 83 49 q 34 49 34 113 q 34 134 42 159 q 50 184 64 206 q 79 227 98 241 q 118 255 142 255 q 177 255 196 258 q 215 260 226 270 z m 146 103 q 152 117 156 132 q 160 147 160 162 q 160 191 150 208 q 141 224 120 224 q 96 224 80 200 q 63 176 63 132 q 63 103 72 90 q 82 77 101 77 q 112 77 125 84 q 138 91 146 103 z"},"j":{"x_min":0,"x_max":136,"ha":136,"o":"m 84 221 q 73 213 62 205 q 52 197 43 187 q 39 186 38 189 q 36 192 37 195 q 51 209 74 226 q 98 244 121 255 q 131 255 129 246 q 94 107 52 13 q 9 -81 -39 -138 q -87 -196 -138 -220 q -190 -245 -243 -245 q -278 -245 -292 -218 q -306 -191 -295 -147 q -293 -145 -290 -144 q -287 -144 -286 -148 q -289 -163 -286 -176 q -284 -189 -275 -200 q -266 -210 -250 -216 q -235 -222 -211 -222 q -171 -222 -132 -202 q -94 -183 -56 -134 q -19 -84 16 2 q 51 88 84 221 z m 133 298 q 127 293 124 304 q 120 316 126 324 q 140 344 158 362 q 175 381 198 401 q 201 403 204 400 q 207 398 205 396 q 184 377 166 350 q 147 324 133 298 z"},"i":{"x_min":0,"x_max":149,"ha":149,"o":"m 52 186 q 49 184 46 188 q 44 191 46 194 q 60 208 84 226 q 108 244 132 256 q 140 256 140 247 q 127 224 114 197 q 102 170 92 144 q 83 117 77 92 q 71 68 71 52 q 71 31 85 31 q 96 31 106 40 q 117 50 131 66 q 133 68 136 65 q 139 62 137 58 q 119 36 98 18 q 78 0 60 0 q 34 0 34 33 q 34 52 40 78 q 47 105 57 132 q 67 159 80 184 q 92 209 104 227 q 93 219 76 206 q 60 194 52 186 z m 142 299 q 139 296 136 298 q 134 301 133 306 q 132 310 132 316 q 132 322 135 326 q 161 362 208 403 q 211 404 214 402 q 217 399 215 397 q 194 378 175 352 q 156 325 142 299 z"},"y":{"x_min":0,"x_max":280,"ha":280,"o":"m 243 232 q 244 235 248 238 q 252 242 258 246 q 263 250 268 252 q 274 255 277 255 q 286 255 284 248 q 262 186 241 128 q 220 69 196 6 q 169 -64 138 -112 q 108 -159 74 -188 q 41 -218 5 -231 q -31 -244 -69 -244 q -122 -244 -150 -218 q -177 -191 -177 -152 q -177 -134 -168 -114 q -158 -94 -138 -79 q -135 -77 -132 -81 q -130 -85 -132 -87 q -148 -106 -148 -130 q -148 -172 -124 -198 q -100 -224 -51 -224 q -16 -224 14 -213 q 43 -202 70 -174 q 96 -146 120 -99 q 145 -52 171 19 q 182 52 192 80 q 203 108 214 138 q 176 78 134 40 q 93 2 61 -1 q 48 -1 42 11 q 36 23 36 44 q 36 62 40 84 q 44 105 52 128 q 59 151 70 174 q 82 198 96 220 q 85 212 73 202 q 61 193 53 185 q 50 183 48 186 q 45 190 47 193 q 61 207 85 225 q 109 243 132 255 q 142 255 140 246 q 125 226 112 202 q 100 177 91 152 q 82 128 77 104 q 72 80 72 61 q 72 33 91 33 q 107 33 130 54 q 152 76 174 106 q 197 137 216 172 q 234 206 243 232 z"},"@":{"x_min":0,"x_max":492,"ha":492,"o":"m 324 65 q 371 65 401 102 q 431 138 431 198 q 431 229 420 256 q 409 283 390 303 q 370 323 342 335 q 315 347 281 347 q 234 347 197 331 q 160 315 134 286 q 107 258 93 219 q 79 180 79 134 q 79 96 91 62 q 103 29 126 4 q 148 -20 182 -34 q 215 -49 259 -49 q 315 -49 352 -27 q 388 -5 408 31 q 411 33 414 30 q 417 27 416 22 q 390 -23 342 -50 q 295 -76 233 -76 q 190 -76 156 -61 q 122 -46 98 -20 q 75 6 62 40 q 50 74 50 113 q 50 162 68 208 q 85 253 118 288 q 150 323 196 344 q 242 364 300 364 q 333 364 360 352 q 388 340 408 320 q 429 299 440 272 q 452 244 452 213 q 452 177 440 145 q 427 113 406 90 q 384 67 356 54 q 329 40 299 40 q 278 40 272 69 q 267 98 282 137 q 259 103 236 78 q 212 53 189 48 q 175 48 164 62 q 154 77 154 107 q 154 133 165 160 q 176 186 194 207 q 213 228 237 242 q 261 255 288 255 q 315 255 332 241 q 337 245 345 249 q 353 253 361 253 q 364 253 364 249 q 342 222 328 190 q 314 158 308 130 q 302 103 306 84 q 310 65 324 65 z m 208 80 q 217 80 230 92 q 244 105 258 125 q 273 145 288 169 q 302 193 313 217 q 305 239 273 239 q 256 239 240 230 q 225 222 213 206 q 201 190 194 168 q 187 147 187 120 q 187 103 194 92 q 200 80 208 80 z"},".":{"x_min":0,"x_max":112,"ha":112,"o":"m 42 0 q 30 0 30 22 q 30 28 34 35 q 38 42 45 49 q 52 56 60 60 q 68 65 77 65 q 87 65 87 50 q 87 42 82 34 q 78 25 72 18 q 65 10 57 5 q 49 0 42 0 z"},"p":{"x_min":0,"x_max":261,"ha":261,"o":"m 207 255 q 227 255 239 237 q 251 219 251 191 q 251 152 238 118 q 224 83 200 56 q 177 30 145 14 q 113 -1 75 -1 q 58 -1 47 6 q 30 -44 16 -100 q 2 -157 2 -206 q 2 -228 25 -225 q 40 -222 55 -213 q 58 -212 58 -216 q 59 -221 57 -224 q 45 -231 24 -238 q 3 -245 -16 -245 q -24 -245 -29 -242 q -34 -238 -34 -229 q -34 -178 -18 -111 q -2 -44 24 28 q 22 31 20 34 q 19 38 18 42 q 17 46 33 51 q 46 87 61 123 q 76 159 91 193 q 110 235 108 244 q 107 254 96 248 q 89 244 80 237 q 71 230 63 221 q 61 219 58 222 q 56 226 57 228 q 63 235 73 244 q 83 253 94 262 q 104 270 114 276 q 125 282 133 282 q 141 282 144 274 q 146 265 140 251 q 134 234 124 212 q 115 189 104 167 q 132 209 159 232 q 186 255 207 255 z m 100 19 q 125 19 146 30 q 168 41 184 60 q 199 80 208 106 q 216 133 216 165 q 216 189 208 204 q 199 220 181 220 q 158 220 126 179 q 94 138 67 63 q 65 58 64 53 q 62 48 60 43 q 65 32 74 26 q 84 19 100 19 z"},"X":{"x_min":0,"x_max":813,"ha":813,"o":"m 814 645 q 828 645 837 632 q 846 618 846 590 q 846 567 838 538 q 830 510 819 491 q 815 489 811 491 q 807 493 808 498 q 818 522 818 544 q 818 570 807 584 q 796 597 768 597 q 733 597 696 578 q 660 558 624 524 q 589 489 557 442 q 525 395 499 340 q 529 202 584 122 q 640 43 715 43 q 741 43 762 60 q 784 76 800 115 q 803 119 806 116 q 810 114 810 107 q 784 47 757 24 q 730 1 695 1 q 651 1 616 26 q 580 50 552 92 q 524 133 504 188 q 484 242 471 301 l 471 302 q 393 152 308 76 q 222 1 141 1 q 99 1 74 18 q 50 35 50 58 q 50 66 54 80 q 58 95 66 112 q 73 130 84 149 q 94 168 106 186 q 109 189 114 186 q 119 184 117 178 q 101 155 96 134 q 90 113 93 92 q 96 69 114 56 q 133 43 168 43 q 212 43 252 64 q 292 84 330 121 q 367 158 401 210 q 435 261 467 323 q 454 386 446 437 q 439 488 432 524 q 425 559 416 578 q 406 597 389 597 q 369 597 350 574 q 330 550 311 514 q 306 509 302 512 q 297 514 299 520 q 310 544 325 566 q 340 589 356 606 q 371 624 386 634 q 402 645 413 645 q 435 645 447 620 q 459 595 466 555 q 473 515 478 464 q 484 414 494 364 q 522 425 558 477 q 595 529 637 566 q 679 603 724 624 q 769 645 814 645 z"},"*":{"x_min":0,"x_max":188,"ha":188,"o":"m 199 335 q 188 333 175 330 q 162 328 150 326 q 136 323 122 321 q 130 311 139 300 q 147 291 154 282 q 162 272 169 266 q 173 262 171 257 q 169 252 164 249 q 160 246 154 246 q 149 245 147 250 q 142 258 136 270 q 130 281 125 291 q 119 302 113 314 q 104 301 96 289 q 89 278 82 268 q 75 257 70 250 q 67 245 62 245 q 57 245 52 248 q 48 250 46 253 q 43 256 46 259 q 54 267 64 278 q 75 289 84 299 q 95 310 105 322 q 95 324 84 327 q 75 329 65 331 q 55 333 47 335 q 42 336 42 340 q 43 344 46 348 q 49 353 54 356 q 59 358 63 356 q 69 352 77 348 q 85 345 93 341 q 102 337 110 332 q 113 345 116 357 q 118 368 121 379 q 124 390 126 399 q 127 405 133 409 q 139 413 145 414 q 151 416 155 414 q 159 413 157 409 q 152 398 146 384 q 140 371 135 360 q 129 346 122 333 q 136 338 150 343 q 162 348 175 352 q 188 356 199 361 q 204 363 206 360 q 208 356 208 350 q 207 345 205 340 q 203 336 199 335 z"},"Y":{"x_min":0,"x_max":662,"ha":662,"o":"m 427 644 q 445 644 456 635 q 466 626 469 605 q 472 584 466 550 q 460 517 444 468 q 424 407 408 358 q 392 308 384 258 q 378 215 390 193 q 402 171 441 171 q 528 171 622 286 q 716 401 829 628 q 848 644 863 644 q 874 644 871 630 q 768 411 681 265 q 594 119 513 32 q 432 -56 352 -92 q 272 -128 183 -128 q 141 -128 108 -114 q 75 -100 52 -76 q 30 -52 18 -20 q 7 11 7 46 q 7 84 20 120 q 34 156 60 184 q 87 213 126 233 q 166 253 219 259 q 224 258 224 254 q 223 250 218 245 q 172 239 140 224 q 107 208 86 185 q 65 162 56 133 q 46 104 46 71 q 46 -5 90 -50 q 134 -94 221 -94 q 285 -94 343 -72 q 401 -50 457 2 q 513 54 570 140 q 626 225 688 351 q 660 305 626 266 q 591 226 555 196 q 519 167 484 150 q 448 134 418 134 q 373 134 354 160 q 336 186 343 232 q 351 287 368 342 q 384 397 400 448 q 416 498 423 530 q 430 562 429 581 q 428 600 421 607 q 414 614 401 614 q 389 614 376 608 q 363 602 351 593 q 339 584 328 573 q 318 562 312 551 q 308 547 304 550 q 301 554 302 559 q 309 570 322 585 q 335 600 352 613 q 370 626 389 635 q 408 644 427 644 z"},"c":{"x_min":0,"x_max":203,"ha":203,"o":"m 178 175 q 173 175 173 180 q 181 200 174 215 q 166 230 143 230 q 127 230 113 218 q 99 207 89 186 q 79 166 73 138 q 67 111 67 79 q 67 30 101 30 q 140 30 179 77 q 183 79 186 76 q 189 74 187 69 q 164 40 136 20 q 108 -1 81 -1 q 59 -1 44 15 q 30 31 30 59 q 30 94 42 129 q 53 164 72 192 q 90 220 114 238 q 138 255 163 255 q 184 255 196 245 q 208 235 208 221 q 208 216 205 209 q 202 202 198 195 q 193 188 188 182 q 182 177 178 175 z"},"!":{"x_min":0,"x_max":189,"ha":189,"o":"m 68 0 q 55 0 55 22 q 55 28 60 35 q 64 42 70 49 q 77 56 86 60 q 94 65 103 65 q 113 65 113 51 q 113 43 108 34 q 104 25 97 18 q 90 10 82 5 q 75 0 68 0 z m 315 525 q 295 486 270 430 q 244 375 218 319 q 192 263 169 212 q 146 162 133 132 q 125 123 120 126 q 114 128 117 139 q 132 172 152 220 q 171 268 190 318 q 208 369 224 416 q 239 463 248 495 q 254 504 268 516 q 281 527 294 534 q 307 541 314 540 q 322 540 315 525 z"},"/":{"x_min":0,"x_max":210,"ha":210,"o":"m 379 625 q 356 588 324 534 q 293 481 257 420 q 221 358 184 292 q 146 227 112 166 q 77 105 48 52 q 18 -1 -1 -37 q -8 -45 -17 -44 q -26 -42 -24 -33 q -2 6 28 58 q 58 110 92 169 q 125 228 161 291 q 197 354 232 415 q 268 476 300 531 q 333 586 359 630 q 365 635 373 634 q 381 633 379 625 z"},"[":{"x_min":0,"x_max":318,"ha":318,"o":"m 249 612 q 251 619 254 621 q 256 623 265 623 q 288 623 306 623 q 324 623 341 623 q 358 623 377 622 q 396 622 421 621 q 431 619 426 612 q 421 605 409 604 q 385 606 353 606 q 321 606 292 606 q 243 420 200 245 q 158 70 131 -79 q 148 -79 160 -80 q 172 -80 184 -80 q 195 -80 208 -80 q 220 -79 238 -79 q 245 -82 243 -88 q 241 -95 224 -96 q 202 -96 189 -96 q 176 -96 163 -96 q 150 -95 134 -94 q 118 -94 91 -94 q 79 -94 79 -84 q 101 3 124 92 q 147 182 169 271 q 191 360 212 446 q 232 532 249 612 z"},"6":{"x_min":0,"x_max":296,"ha":296,"o":"m 376 500 q 403 500 420 480 q 436 459 437 429 q 435 425 432 424 q 429 424 427 426 q 415 446 396 457 q 377 468 345 468 q 306 468 272 451 q 237 434 208 403 q 178 372 154 328 q 130 285 111 232 q 129 258 158 275 q 186 292 220 292 q 252 292 272 266 q 291 239 291 201 q 291 165 276 129 q 260 93 235 64 q 210 36 180 18 q 149 0 119 0 q 84 0 67 28 q 50 55 50 108 q 50 145 62 188 q 75 232 96 276 q 118 319 148 360 q 179 400 216 432 q 252 463 292 482 q 333 500 376 500 z m 189 259 q 170 259 152 249 q 134 239 120 221 q 105 203 96 178 q 88 154 88 126 q 88 73 104 52 q 120 31 152 31 q 168 31 186 40 q 203 50 218 68 q 232 87 241 114 q 250 142 250 179 q 250 214 236 236 q 221 259 189 259 z"},"r":{"x_min":0,"x_max":195,"ha":195,"o":"m 121 228 q 121 213 118 193 q 115 173 110 153 q 130 201 154 228 q 178 256 206 256 q 217 256 226 250 q 235 244 235 233 q 235 225 229 212 q 223 200 217 194 q 211 190 211 197 q 211 214 188 214 q 153 214 125 162 q 97 109 72 16 q 70 6 58 3 q 47 0 39 0 q 28 0 34 11 q 43 32 51 56 q 59 81 66 106 q 74 131 79 155 q 84 179 87 199 q 91 229 77 229 q 69 229 58 220 q 48 211 39 199 q 35 197 32 200 q 29 202 31 206 q 46 225 64 240 q 83 256 99 256 q 121 256 121 228 z"},"2":{"x_min":0,"x_max":277,"ha":277,"o":"m 201 313 q 235 313 253 292 q 271 272 271 245 q 271 215 258 191 q 246 167 222 145 q 198 123 163 100 q 128 78 83 51 q 104 44 132 38 q 160 33 194 33 q 233 33 247 58 q 251 62 254 58 q 258 55 256 48 q 242 25 222 12 q 202 0 172 0 q 144 0 123 6 q 102 11 86 16 q 69 21 56 22 q 42 24 29 16 q 20 11 14 7 q 9 3 4 0 q -1 0 -1 6 q -1 13 4 18 q 47 47 88 70 q 129 94 161 118 q 193 141 212 168 q 231 194 231 229 q 231 255 215 269 q 199 283 172 283 q 140 283 118 261 q 97 239 90 207 q 87 204 83 207 q 79 210 78 215 q 82 233 92 250 q 103 268 118 282 q 134 296 155 304 q 176 313 201 313 z"},"{":{"x_min":0,"x_max":291,"ha":291,"o":"m 209 496 q 223 563 262 592 q 302 622 379 622 q 387 620 386 614 q 385 608 375 608 q 318 608 289 584 q 260 560 248 506 q 243 485 241 468 q 239 452 238 436 q 236 420 234 404 q 232 387 227 366 q 219 336 198 311 q 178 286 147 272 q 172 265 182 242 q 192 220 186 192 q 180 166 172 146 q 164 125 156 105 q 148 85 140 65 q 133 45 128 21 q 118 -30 136 -56 q 154 -81 205 -81 q 210 -83 209 -88 q 208 -94 199 -96 q 127 -96 102 -66 q 77 -36 88 16 q 94 43 102 64 q 110 85 118 104 q 126 123 134 142 q 142 161 148 185 q 152 200 149 212 q 146 225 140 234 q 133 244 122 250 q 112 256 101 258 q 95 263 99 270 q 103 277 120 282 q 152 290 168 308 q 183 326 191 361 q 201 401 202 432 q 202 463 209 496 z"},"9":{"x_min":0,"x_max":304,"ha":304,"o":"m 17 -151 q -9 -151 -25 -138 q -41 -125 -44 -103 q -43 -100 -40 -98 q -37 -96 -34 -98 q -24 -111 -8 -118 q 8 -124 34 -124 q 105 -124 154 -76 q 202 -28 234 88 q 214 58 188 40 q 162 21 125 21 q 85 21 65 46 q 45 71 45 108 q 45 142 58 178 q 70 214 92 244 q 115 274 146 294 q 177 313 214 313 q 251 313 274 288 q 298 263 298 225 q 298 152 274 84 q 250 17 211 -36 q 172 -88 122 -120 q 71 -151 17 -151 z m 152 51 q 172 51 191 64 q 210 77 224 98 q 239 119 248 146 q 256 172 256 200 q 256 237 240 261 q 223 285 185 285 q 140 285 112 242 q 85 199 85 129 q 85 91 101 71 q 117 51 152 51 z"}," ":{"x_min":0,"x_max":150,"ha":150,"o":""},"I":{"x_min":0,"x_max":554,"ha":554,"o":"m 738 645 q 741 643 740 639 q 739 635 735 630 q 731 625 726 620 q 721 615 717 613 q 697 607 681 597 q 665 587 650 566 q 635 545 621 508 q 607 472 592 414 q 556 277 494 182 q 508 184 520 189 q 533 194 540 198 q 543 199 544 196 q 545 194 543 191 q 522 177 488 172 q 430 88 353 44 q 276 0 181 0 q 121 0 86 27 q 50 54 50 93 q 50 124 76 155 q 102 186 146 206 q 151 205 152 202 q 152 199 150 197 q 119 180 104 158 q 89 136 89 113 q 89 79 120 54 q 151 29 214 29 q 293 29 354 62 q 416 94 463 171 q 412 174 385 210 q 358 246 358 303 q 358 365 388 426 q 418 487 470 536 q 521 585 590 615 q 660 645 738 645 z m 549 392 q 560 434 572 468 q 584 501 599 527 q 614 553 632 572 q 651 592 674 606 q 605 598 549 568 q 493 537 454 495 q 414 453 392 404 q 371 354 371 307 q 371 247 398 216 q 424 184 469 181 q 492 221 512 274 q 532 326 549 392 z"},"H":{"x_min":0,"x_max":865,"ha":865,"o":"m 1109 681 q 1130 681 1141 668 q 1152 654 1152 636 q 1152 622 1148 608 q 1145 595 1139 585 q 1137 583 1134 584 q 1132 585 1132 589 q 1139 612 1128 628 q 1117 644 1088 644 q 1044 644 1004 624 q 964 605 926 558 q 888 511 852 433 q 816 355 781 237 q 794 233 806 230 q 819 226 831 223 q 836 219 822 212 q 807 205 787 206 q 783 207 773 211 q 770 199 766 186 q 763 174 759 161 q 728 44 772 44 q 811 44 848 100 q 851 103 854 101 q 857 99 856 94 q 845 77 832 60 q 818 44 803 30 q 788 17 774 8 q 759 0 747 0 q 717 0 706 30 q 694 61 711 127 q 723 178 738 222 q 679 240 612 254 q 545 268 473 274 q 445 201 410 149 q 375 97 334 64 q 294 31 248 16 q 203 0 154 0 q 102 0 76 26 q 50 51 50 92 q 50 131 74 167 q 97 203 142 230 q 186 258 250 274 q 315 291 398 291 q 409 291 420 291 q 431 291 442 290 q 447 304 451 318 q 455 333 460 349 q 476 408 492 450 q 507 491 522 520 q 538 548 554 564 q 571 581 590 591 q 564 601 528 608 q 493 615 451 615 q 404 615 370 601 q 337 587 318 563 q 298 539 292 508 q 285 477 292 443 q 291 438 288 437 q 285 436 282 440 q 273 482 282 520 q 291 557 317 585 q 343 613 386 629 q 428 645 487 645 q 528 645 567 636 q 606 626 637 613 q 641 607 637 602 q 633 597 618 591 q 598 583 584 569 q 569 555 557 531 q 545 507 534 472 q 523 437 510 387 q 502 361 494 336 q 487 311 479 288 q 545 283 614 272 q 683 261 746 246 q 780 349 824 430 q 867 510 914 566 q 962 622 1012 652 q 1061 681 1109 681 z m 181 24 q 225 24 262 36 q 299 49 330 78 q 361 108 388 156 q 414 204 438 276 q 423 278 408 278 q 394 278 379 278 q 308 278 252 264 q 196 251 158 228 q 120 205 100 175 q 80 145 80 112 q 80 69 106 46 q 133 24 181 24 z"},"4":{"x_min":0,"x_max":363,"ha":363,"o":"m 452 503 q 457 504 460 502 q 464 499 462 494 q 431 467 409 438 q 387 409 367 374 q 341 328 317 274 q 293 220 272 160 q 277 159 282 159 q 287 159 292 159 q 327 159 350 170 q 372 180 383 200 q 385 202 388 200 q 392 197 390 192 q 372 160 345 144 q 318 129 270 129 l 261 129 q 253 103 245 76 q 237 48 229 20 q 225 11 212 2 q 199 -6 188 -6 q 178 -6 177 0 q 188 32 199 65 q 210 98 223 131 q 189 134 162 140 q 135 145 115 148 q 95 152 80 153 q 66 154 58 148 q 56 146 54 144 q 52 143 50 141 q 46 139 42 141 q 38 143 40 148 q 83 201 134 251 q 185 301 239 346 q 293 392 348 432 q 402 471 452 503 z m 235 161 q 264 233 296 300 q 327 368 359 422 q 319 395 284 367 q 248 339 216 310 q 183 280 152 248 q 121 217 90 183 q 119 175 156 169 q 193 163 235 161 z"},"~":{"x_min":0,"x_max":383,"ha":383,"o":"m 52 139 q 71 164 96 184 q 121 204 150 204 q 168 204 182 198 q 197 192 211 186 q 225 179 240 173 q 256 167 277 167 q 315 167 351 208 q 356 210 360 207 q 364 204 362 199 q 339 171 312 154 q 284 137 256 137 q 234 137 218 143 q 202 149 188 156 q 175 162 162 168 q 149 174 133 174 q 110 174 94 162 q 77 150 60 130 q 55 127 52 130 q 50 134 52 139 z"},"D":{"x_min":0,"x_max":799,"ha":799,"o":"m 583 591 q 632 562 671 522 q 710 481 738 436 q 765 391 780 344 q 794 298 794 256 q 794 200 776 154 q 758 107 723 72 q 688 38 637 19 q 586 0 521 0 q 483 0 450 5 q 417 10 388 18 q 358 25 331 34 q 304 43 277 52 q 238 25 192 12 q 145 0 88 0 q 56 0 43 8 q 30 15 30 28 q 30 41 39 56 q 48 70 64 82 q 80 94 103 102 q 126 109 155 109 q 193 109 226 102 q 259 95 290 85 q 327 124 359 193 q 391 262 427 373 q 448 437 473 487 q 498 537 530 572 q 491 592 447 604 q 403 616 355 616 q 316 616 284 604 q 251 591 226 568 q 201 546 185 515 q 169 484 163 446 q 157 440 155 450 q 159 492 177 528 q 195 563 226 589 q 256 615 298 630 q 341 644 394 644 q 440 644 482 633 q 524 622 562 602 q 616 646 690 661 q 693 661 694 658 q 694 654 691 652 q 659 644 632 628 q 606 613 583 591 z m 122 18 q 164 18 198 26 q 231 35 260 57 q 227 67 192 74 q 157 81 115 81 q 88 81 75 72 q 62 63 60 50 q 58 36 71 27 q 84 18 122 18 z m 566 27 q 661 27 708 80 q 756 134 756 224 q 756 271 742 318 q 728 366 702 410 q 675 455 638 493 q 601 531 555 559 q 529 527 509 486 q 489 444 472 393 q 435 278 396 202 q 358 125 309 78 q 334 69 361 60 q 388 51 418 44 q 449 36 486 32 q 522 27 566 27 z"},"^":{"x_min":0,"x_max":272,"ha":272,"o":"m 181 361 q 190 373 197 359 q 210 319 224 280 q 237 240 251 205 q 252 200 250 194 q 248 188 244 184 q 239 179 234 177 q 229 175 226 178 q 214 212 201 250 q 188 289 177 321 q 163 304 148 284 q 133 265 117 246 q 101 226 86 208 q 72 191 60 177 q 56 175 52 178 q 49 182 51 188 q 74 219 108 263 q 143 307 181 361 z"},"0":{"x_min":0,"x_max":349,"ha":349,"o":"m 216 283 q 187 283 164 271 q 140 259 123 238 q 106 218 97 191 q 88 164 88 135 q 88 88 109 60 q 130 31 175 31 q 199 31 222 42 q 245 53 262 73 q 280 93 290 120 q 301 148 301 181 q 301 228 281 256 q 261 283 216 283 z m 148 0 q 103 0 79 30 q 55 59 55 104 q 55 136 68 173 q 82 210 107 241 q 132 272 166 292 q 200 313 242 313 q 287 313 310 284 q 334 255 334 210 q 334 169 318 132 q 302 94 276 64 q 250 35 216 18 q 183 0 148 0 z"},"F":{"x_min":0,"x_max":626,"ha":626,"o":"m 833 609 q 837 606 834 600 q 832 595 826 590 q 820 585 812 581 q 804 577 797 577 q 773 579 748 582 q 724 586 700 590 q 680 584 664 572 q 649 561 636 542 q 623 522 611 492 q 599 462 587 418 q 580 395 574 373 q 568 351 560 330 q 585 331 610 331 q 636 331 663 331 q 668 329 666 326 q 665 323 657 321 q 631 321 606 320 q 580 320 556 319 q 497 154 408 77 q 318 0 194 0 q 122 0 86 36 q 50 73 50 133 q 50 162 66 191 q 81 220 110 240 q 115 240 116 236 q 118 232 116 229 q 98 215 90 198 q 81 182 81 154 q 81 128 90 106 q 99 84 118 68 q 137 51 167 42 q 197 33 239 33 q 289 33 329 48 q 369 62 402 96 q 436 129 464 184 q 493 238 519 317 q 469 315 422 311 q 374 307 326 300 q 323 301 327 304 q 331 308 338 312 q 346 315 354 318 q 363 322 368 323 q 409 326 447 328 q 485 329 523 330 q 528 346 533 363 q 538 380 543 398 q 555 441 568 474 q 580 506 596 529 q 612 552 632 568 q 651 583 677 593 q 623 601 573 608 q 523 614 478 614 q 403 614 352 582 q 301 550 278 481 q 275 479 272 480 q 269 482 269 487 q 291 558 356 601 q 420 644 515 644 q 552 644 590 640 q 627 636 666 630 q 705 625 746 619 q 788 613 833 609 z"},"`":{"x_min":0,"x_max":155,"ha":155,"o":"m 134 325 q 136 323 134 320 q 131 317 126 316 q 101 324 72 337 q 43 350 23 363 q 17 365 23 371 q 32 379 46 383 q 60 387 63 385 q 77 371 96 355 q 116 339 134 325 z"},"k":{"x_min":0,"x_max":259,"ha":259,"o":"m 144 131 q 155 78 172 50 q 189 21 214 21 q 225 21 234 26 q 244 31 255 45 q 258 47 260 44 q 262 42 261 39 q 247 21 231 10 q 215 0 193 0 q 161 0 142 34 q 123 68 111 133 q 110 141 116 143 q 134 139 152 142 q 170 146 184 154 q 198 162 206 175 q 215 188 215 204 q 215 229 190 229 q 156 229 126 196 q 96 162 81 97 q 77 80 72 60 q 68 39 65 25 q 63 17 61 13 q 59 9 52 6 q 40 0 31 0 q 23 0 26 9 q 57 176 110 314 q 164 451 228 550 q 292 648 360 702 q 428 756 488 756 q 510 756 524 748 q 539 739 544 726 q 550 713 548 697 q 545 681 533 665 q 526 660 524 668 q 529 688 514 707 q 500 726 465 726 q 421 726 372 693 q 322 660 272 591 q 222 522 176 416 q 129 309 92 162 q 114 205 143 230 q 172 256 212 256 q 229 256 240 244 q 250 232 250 217 q 250 185 220 161 q 189 137 144 131 z"},"u":{"x_min":0,"x_max":299,"ha":299,"o":"m 65 0 q 52 0 42 12 q 32 25 32 45 q 32 61 36 82 q 41 104 48 128 q 56 152 67 176 q 78 200 92 221 q 81 213 69 204 q 57 194 49 186 q 46 184 44 188 q 42 191 43 194 q 50 201 61 210 q 72 219 84 228 q 97 237 110 246 q 124 254 136 260 q 140 261 142 258 q 145 255 144 251 q 112 210 92 160 q 73 111 73 66 q 73 37 90 37 q 103 37 122 54 q 142 72 163 100 q 184 129 206 165 q 227 201 245 238 q 248 245 256 250 q 265 256 275 256 q 288 256 284 248 q 270 222 259 200 q 248 177 241 155 q 234 133 230 110 q 227 87 227 60 q 227 28 245 28 q 253 28 263 36 q 273 45 283 59 q 286 61 289 59 q 292 57 290 52 q 276 31 258 16 q 239 0 222 0 q 209 0 200 13 q 191 26 191 48 q 191 72 196 100 q 200 127 210 155 q 191 118 170 90 q 149 61 130 41 q 110 21 93 10 q 76 0 65 0 z"},"]":{"x_min":0,"x_max":339,"ha":339,"o":"m 194 -86 q 193 -92 190 -94 q 187 -96 178 -96 q 155 -96 137 -96 q 119 -96 102 -96 q 85 -96 66 -96 q 47 -95 22 -95 q 12 -93 17 -86 q 22 -78 35 -77 q 58 -79 90 -80 q 122 -80 151 -79 q 200 107 242 282 q 285 456 312 605 q 295 606 282 606 q 270 607 259 607 q 248 607 236 606 q 223 606 205 606 q 198 608 200 614 q 202 621 219 623 q 241 623 254 622 q 267 622 280 622 q 293 622 309 622 q 325 621 352 620 q 364 620 364 611 q 341 524 318 434 q 296 345 274 256 q 252 167 232 80 q 211 -6 194 -86 z"},"U":{"x_min":0,"x_max":752,"ha":752,"o":"m 441 586 q 415 596 376 604 q 337 612 296 612 q 235 612 191 586 q 147 559 121 516 q 95 474 86 421 q 78 368 89 316 q 88 312 84 310 q 80 308 78 312 q 64 375 76 434 q 88 494 121 540 q 154 587 208 616 q 261 644 332 644 q 374 644 413 635 q 452 626 483 612 q 489 607 480 600 q 427 558 386 506 q 346 453 318 394 q 289 336 274 274 q 260 213 260 153 q 260 87 283 61 q 306 35 344 35 q 396 35 446 70 q 496 105 548 178 q 601 250 660 360 q 718 471 786 622 q 790 630 803 637 q 816 644 830 644 q 846 644 846 637 q 828 616 806 578 q 784 539 762 490 q 741 442 720 387 q 700 332 684 280 q 668 227 658 180 q 649 134 649 101 q 649 44 686 44 q 724 44 760 100 q 763 103 767 100 q 771 98 770 94 q 759 77 746 60 q 732 44 717 30 q 702 17 688 8 q 673 0 661 0 q 633 0 620 23 q 608 46 608 78 q 608 128 623 197 q 638 266 670 346 q 579 175 490 88 q 401 0 313 0 q 265 0 240 32 q 216 65 216 125 q 216 186 232 248 q 247 310 276 370 q 305 429 346 484 q 388 539 441 586 z"},"o":{"x_min":0,"x_max":225,"ha":225,"o":"m 162 256 q 189 256 202 238 q 215 220 215 191 q 215 157 202 123 q 189 89 169 62 q 149 34 126 17 q 102 0 82 0 q 58 0 44 19 q 30 38 30 73 q 30 101 41 133 q 52 165 70 192 q 89 220 112 238 q 136 256 162 256 z m 102 31 q 117 31 132 42 q 146 52 157 70 q 168 87 174 110 q 181 133 181 158 q 181 188 171 206 q 161 223 138 223 q 123 223 109 212 q 95 202 84 184 q 74 167 68 144 q 62 120 62 94 q 62 31 102 31 z"},"N":{"x_min":0,"x_max":990,"ha":990,"o":"m 1216 644 q 1244 644 1260 622 q 1277 601 1277 548 q 1276 542 1272 542 q 1267 541 1265 547 q 1263 565 1252 578 q 1241 591 1225 596 q 1209 602 1190 600 q 1170 597 1151 583 q 1102 548 1061 484 q 1020 420 989 342 q 958 265 940 180 q 922 95 919 18 q 919 7 917 4 q 915 0 910 0 q 906 0 904 4 q 901 9 899 15 q 854 186 791 316 q 728 447 647 522 q 625 398 584 301 q 543 204 488 137 q 433 70 368 35 q 303 0 234 0 q 163 0 119 30 q 75 61 59 106 q 43 150 56 200 q 69 251 112 290 q 117 291 120 288 q 122 284 120 279 q 91 250 83 210 q 75 169 91 132 q 107 95 148 69 q 189 43 259 43 q 328 43 388 76 q 448 110 496 174 q 543 237 576 330 q 610 422 627 540 q 585 575 540 593 q 495 611 446 611 q 398 611 366 589 q 335 567 321 540 q 318 538 314 539 q 311 540 310 545 q 319 564 334 582 q 350 600 370 614 q 390 627 416 636 q 442 644 472 644 q 514 644 554 628 q 595 613 633 584 l 633 586 q 634 592 638 600 q 642 608 646 614 q 651 621 655 624 q 659 626 660 621 q 659 607 658 594 q 656 580 654 567 q 697 529 736 478 q 775 427 808 367 q 841 307 868 240 q 894 174 914 106 q 921 166 937 230 q 953 293 976 352 q 999 412 1028 465 q 1056 518 1088 558 q 1119 598 1152 621 q 1184 644 1216 644 z"},"+":{"x_min":0,"x_max":301,"ha":301,"o":"m 269 155 q 277 153 270 145 q 263 137 251 135 l 168 135 q 160 112 153 91 q 146 70 139 50 q 135 37 124 34 q 112 31 112 39 q 120 64 128 88 q 135 112 143 135 q 120 134 98 134 q 77 134 56 133 q 49 135 54 144 q 59 153 84 156 l 150 156 q 158 179 166 200 q 174 222 182 243 q 183 247 188 250 q 192 254 197 256 q 202 257 206 256 q 210 255 210 251 q 201 225 192 202 q 184 179 176 156 q 199 156 223 156 q 247 156 269 155 z"},"G":{"x_min":0,"x_max":571,"ha":571,"o":"m 573 611 q 504 611 444 582 q 385 554 342 504 q 298 455 274 386 q 249 318 249 239 q 249 171 274 136 q 298 101 349 101 q 407 101 450 134 q 493 166 510 226 q 511 232 519 236 q 527 240 536 242 q 544 243 551 242 q 558 241 558 236 q 525 120 481 40 q 437 -41 384 -91 q 331 -141 270 -164 q 210 -186 145 -186 q 99 -186 65 -174 q 31 -162 8 -141 q -14 -120 -26 -92 q -37 -65 -37 -34 q -37 9 -18 44 q 2 78 49 100 q 54 102 56 98 q 57 93 54 89 q 5 62 5 -10 q 5 -80 47 -124 q 89 -168 167 -168 q 275 -168 356 -94 q 436 -21 486 143 q 455 117 416 100 q 377 82 328 82 q 264 82 232 118 q 200 155 200 216 q 200 286 231 362 q 262 437 316 500 q 371 562 444 602 q 517 643 601 643 q 645 643 670 624 q 696 605 696 578 q 696 567 691 552 q 686 537 678 522 q 670 506 661 492 q 652 477 645 466 q 641 464 638 466 q 634 469 635 473 q 649 495 656 512 q 662 529 662 549 q 662 576 638 594 q 613 611 573 611 z"},"q":{"x_min":0,"x_max":269,"ha":269,"o":"m 175 -217 q 178 -216 178 -221 q 177 -226 175 -228 q 157 -235 136 -240 q 114 -244 102 -244 q 80 -244 84 -206 q 88 -179 98 -139 q 107 -99 120 -56 q 134 -12 150 30 q 165 71 182 101 q 169 84 154 67 q 138 50 122 36 q 106 22 91 12 q 76 3 64 0 q 46 0 36 14 q 25 29 25 61 q 25 98 40 133 q 55 168 80 195 q 106 222 140 238 q 174 255 213 255 q 240 255 260 237 q 271 246 280 247 q 289 248 288 243 q 255 196 228 140 q 201 84 180 26 q 159 -32 146 -88 q 132 -143 127 -189 q 125 -206 129 -214 q 133 -223 145 -223 q 158 -223 175 -217 z m 86 34 q 96 34 112 46 q 128 58 145 75 q 162 92 176 110 q 191 128 198 141 q 211 166 218 180 q 226 193 236 210 q 235 221 225 230 q 215 239 198 239 q 169 239 144 226 q 120 212 102 189 q 83 166 72 135 q 62 104 62 69 q 62 34 86 34 z"},"d":{"x_min":0,"x_max":285,"ha":285,"o":"m 602 756 q 628 756 635 736 q 642 716 628 686 q 620 680 618 689 q 620 703 610 711 q 600 719 582 719 q 546 719 509 694 q 472 669 437 624 q 402 580 369 520 q 336 460 308 390 q 280 320 258 244 q 235 167 221 90 q 217 67 219 50 q 221 32 233 32 q 244 32 255 44 q 266 55 275 69 q 277 71 280 69 q 284 67 283 63 q 278 54 269 43 q 260 32 250 22 q 239 13 228 6 q 217 0 208 0 q 191 0 184 14 q 178 29 180 52 q 181 69 184 84 q 187 99 191 116 q 182 95 167 76 q 152 56 136 40 q 120 24 104 14 q 89 3 78 0 q 61 0 46 14 q 30 29 30 61 q 30 99 43 134 q 56 170 78 197 q 101 224 130 240 q 160 257 194 257 q 205 257 214 254 q 222 251 229 246 q 247 300 272 359 q 298 418 328 474 q 358 531 392 582 q 425 633 460 672 q 496 710 532 733 q 568 756 602 756 z m 96 35 q 107 35 122 48 q 138 60 154 80 q 169 100 184 126 q 198 153 208 181 q 211 191 214 200 q 217 209 219 218 q 215 230 204 236 q 193 241 179 241 q 158 241 138 228 q 118 216 102 194 q 87 172 78 142 q 68 112 68 76 q 68 55 76 45 q 85 35 96 35 z"},"1":{"x_min":0,"x_max":189,"ha":189,"o":"m 51 -7 q 40 -7 40 2 q 52 34 66 68 q 81 102 96 136 q 111 170 126 202 q 141 234 154 262 q 131 256 110 251 q 89 246 72 246 q 68 247 69 252 q 70 257 76 259 q 114 264 152 282 q 189 299 221 327 q 226 329 230 327 q 234 325 233 320 q 208 287 186 248 q 164 208 146 168 q 127 127 114 87 q 100 47 91 12 q 84 3 73 -2 q 62 -7 51 -7 z"},"5":{"x_min":0,"x_max":250,"ha":250,"o":"m 125 159 q 165 139 186 106 q 208 74 208 33 q 208 -3 190 -37 q 173 -71 144 -97 q 115 -123 76 -138 q 37 -154 -5 -154 q -37 -154 -52 -138 q -68 -121 -70 -95 q -69 -90 -64 -89 q -60 -88 -58 -91 q -47 -111 -28 -120 q -8 -128 28 -128 q 59 -128 84 -118 q 110 -107 129 -89 q 148 -71 158 -46 q 169 -21 169 8 q 169 46 150 76 q 131 107 91 123 q 68 131 78 168 q 87 201 102 237 q 116 273 131 304 q 135 309 146 309 q 166 310 189 310 q 212 311 236 313 q 282 315 289 332 q 291 336 295 334 q 299 332 299 327 q 294 310 290 300 q 286 291 280 286 q 273 280 262 278 q 252 276 236 275 q 228 275 217 274 q 206 274 194 273 q 182 272 170 272 q 159 271 152 271 q 140 270 134 267 q 129 264 126 258 q 119 243 114 230 q 110 218 106 204 q 102 187 106 177 q 110 167 125 159 z"}}}
